<svg xmlns="http://www.w3.org/2000/svg" width="570" height="577.03" viewBox="0 0 570 577.03">
  <g id="challanges" transform="translate(8735.012 21025.349)">
    <g id="Group_292839" data-name="Group 292839" transform="translate(-8735.501 -21065.318)">
      <g id="about" transform="translate(8.561 70)">
        <g id="freepik--background-complete--inject-2" transform="translate(39.143)">
          <rect id="Rectangle_148539" data-name="Rectangle 148539" width="5.216" height="5.216" transform="translate(201.471 86.722)" fill="#fff"/>
          <rect id="Rectangle_148540" data-name="Rectangle 148540" width="5.216" height="5.216" transform="translate(214.3 86.722)" fill="#fff"/>
          <rect id="Rectangle_148550" data-name="Rectangle 148550" width="120.972" height="175.342" transform="translate(374.1 12.306)" fill="#e1e8fb"/>
          <rect id="Rectangle_148551" data-name="Rectangle 148551" width="90.914" height="137.361" transform="translate(389.122 31.302)" fill="#ebf0ff"/>
          <path id="Path_90698" data-name="Path 90698" d="M448.215,201.428V191.266c0-6.582,0-16.169-.082-28.3,0-24.213-.082-58.52-.137-98.9l.3.3H357.4l.328-.328V201.4l-.259-.273,66.168.137H442.02l-18.218.068-66.334.137H357V63.52h91.5v.3c-.068,40.466-.109,74.84-.15,99.108,0,12.086,0,21.66-.082,28.229v9.385a8.17,8.17,0,0,1-.056.885Z" transform="translate(31.822 -32.764)" fill="#fff"/>
          <path id="Path_90699" data-name="Path 90699" d="M439.406,50a21.288,21.288,0,0,1-2.159,3.141c-1.366,1.871-3.4,4.425-5.668,7.2s-4.411,5.2-5.982,6.952a22.479,22.479,0,0,1-2.663,2.732A21.732,21.732,0,0,1,425.242,67l5.821-7.074,5.821-7.061A24.294,24.294,0,0,1,439.406,50Z" transform="translate(55.936 -37.708)" fill="#fff"/>
          <path id="Path_90701" data-name="Path 90701" d="M439.976,184a16.822,16.822,0,0,1-2.732-2.514,88.078,88.078,0,0,1-5.982-6.746,84.462,84.462,0,0,1-5.26-7.32,17.025,17.025,0,0,1-1.844-3.25,25.738,25.738,0,0,1,2.226,2.99c1.366,1.871,3.207,4.438,5.394,7.169s4.277,5.121,5.8,6.828A25.614,25.614,0,0,1,439.974,184Z" transform="translate(55.325 4.042)" fill="#fff"/>
          <path id="Path_90702" data-name="Path 90702" d="M346.2,183.529,362.057,164" transform="translate(27.936 3.98)" fill="#fff"/>
          <path id="Path_90703" data-name="Path 90703" d="M362.06,164a121.974,121.974,0,0,1-7.675,9.979,116.658,116.658,0,0,1-8.2,9.559,118.393,118.393,0,0,1,7.675-9.979,119.573,119.573,0,0,1,8.2-9.559Z" transform="translate(27.933 3.98)" fill="#fff"/>
          <path id="Path_90704" data-name="Path 90704" d="M346.22,50a112.834,112.834,0,0,1,7.69,9.191,108.216,108.216,0,0,1,7.169,9.559,111.773,111.773,0,0,1-7.688-9.191A103.868,103.868,0,0,1,346.22,50Z" transform="translate(27.944 -37.708)" fill="#fff"/>
          <rect id="Rectangle_148552" data-name="Rectangle 148552" width="30.442" height="86.421" transform="translate(421.27 59.189)" fill="#fff"/>
        </g>
        <g id="freepik--Mug--inject-2" transform="translate(79.306 211.935)">
          <path id="Path_90730" data-name="Path 90730" d="M129.035,242.4a3.618,3.618,0,0,1,4.576-.109,6.256,6.256,0,0,1,2.281,5.094,13.957,13.957,0,0,1-5.2,10.3,14.232,14.232,0,0,1-5.6,2.882,1.417,1.417,0,1,0,.752,2.732,17.617,17.617,0,0,0,10.929-8.741c2.417-4.616,3.019-11.306-1.789-14.64a6.391,6.391,0,0,0-7.948.546c-1.366,1.257.669,3.223,1.967,1.98Z" transform="translate(-101.216 -200.03)" fill="#455a64"/>
          <path id="Path_90731" data-name="Path 90731" d="M107.507,235.282c-.656.238.423,21.851,4.644,36.956h20.062a117.078,117.078,0,0,0,3.92-22.011,125.234,125.234,0,0,0,0-14.941S122.007,230.311,107.507,235.282Z" transform="translate(-107.33 -202.116)" fill="#455a64"/>
          <path id="Path_90732" data-name="Path 90732" d="M136.28,234.948l-.273.109-.82.246c-.356.109-.792.246-1.366.369s-1.093.288-1.747.41a42.336,42.336,0,0,1-4.588.752,49.615,49.615,0,0,1-5.695.288,54.515,54.515,0,0,1-5.681-.423c-1.734-.238-3.292-.532-4.575-.832s-2.335-.574-3.032-.805l-.82-.259a.819.819,0,0,1-.273-.109h.287l.832.219c.713.191,1.747.437,3.046.713s2.84.546,4.562.778a54.717,54.717,0,0,0,5.653.383,52.7,52.7,0,0,0,5.668-.246c1.734-.191,3.292-.437,4.588-.7.643-.109,1.228-.259,1.734-.369s.956-.219,1.366-.314l.82-.2Z" transform="translate(-107.3 -201.526)" fill="#263238"/>
          <g id="Group_292835" data-name="Group 292835" transform="translate(2.363 32.068)" opacity="0.3">
            <path id="Path_90733" data-name="Path 90733" d="M133.356,235.776a41.271,41.271,0,0,0-24.3-.119,65.445,65.445,0,0,0,11.213,1.721,48.754,48.754,0,0,0,13.083-1.6Z" transform="translate(-109.06 -233.888)"/>
          </g>
          <path id="Path_90734" data-name="Path 90734" d="M126.6,264.743v-.273a6.772,6.772,0,0,1,.137-.778c.137-.713.328-1.68.546-2.851.45-2.417,1.051-5.75,1.5-9.477.219-1.857.369-3.633.464-5.245s.137-3.089.109-4.316V238.12a2.945,2.945,0,0,0,.082.778,7.53,7.53,0,0,1,.109,1.257c.027.492.068,1.037.068,1.652v4.329a47.957,47.957,0,0,1-.45,5.272c-.45,3.728-1.079,7.074-1.584,9.477-.246,1.2-.464,2.172-.628,2.84l-.191.764C126.642,264.66,126.614,264.756,126.6,264.743Z" transform="translate(-100.283 -200.372)" fill="#263238"/>
          <path id="Path_90735" data-name="Path 90735" d="M126.932,245.5a3.93,3.93,0,0,1-.314.519c-.219.314-.546.778-.956,1.366-.832,1.119-2.008,2.649-3.359,4.288s-2.635,3.089-3.578,4.1l-1.133,1.2a2.556,2.556,0,0,1-.45.41,2.731,2.731,0,0,1,.369-.492l1.069-1.257c.916-1.051,2.158-2.514,3.51-4.1s2.554-3.142,3.414-4.233l1.037-1.3a2.733,2.733,0,0,1,.391-.5Z" transform="translate(-103.742 -197.571)" fill="#263238"/>
          <path id="Path_90736" data-name="Path 90736" d="M124.6,245.34a54.927,54.927,0,0,1-3.564,4.4,55.88,55.88,0,0,1-3.769,4.2s1.544-2.008,3.564-4.385S124.552,245.3,124.6,245.34Z" transform="translate(-103.695 -197.631)" fill="#263238"/>
          <path id="Path_90737" data-name="Path 90737" d="M117.364,210.411h.082l.177.177a2.826,2.826,0,0,1,.532.832,4.711,4.711,0,0,1-.137,3.564,14.107,14.107,0,0,1-1.188,2.212,15.3,15.3,0,0,0-1.366,2.485,4.658,4.658,0,0,0-.287,2.99,11.35,11.35,0,0,0,1.53,2.964,8.723,8.723,0,0,1,.778,1.557,3.633,3.633,0,0,1,.246,1.694,3.207,3.207,0,0,1-.614,1.544,9.624,9.624,0,0,1-1.011,1.188c-.356.356-.713.7-1.011,1.051a5.82,5.82,0,0,0-.764,1.119,6.159,6.159,0,0,0-.628,2.335,6.337,6.337,0,0,0,.764,3.427c.423.738.764,1.051.738,1.079a4.2,4.2,0,0,1-.832-1.024,6.145,6.145,0,0,1-.86-3.483,5.927,5.927,0,0,1,.614-2.445,6.255,6.255,0,0,1,.778-1.175c.314-.369.669-.713,1.011-1.069a4.6,4.6,0,0,0,1.544-2.581,4.917,4.917,0,0,0-1-3.072,12.29,12.29,0,0,1-1.557-3.032,4.97,4.97,0,0,1,.314-3.168,15.019,15.019,0,0,1,1.366-2.514,14.329,14.329,0,0,0,1.188-2.158,4.726,4.726,0,0,0,.238-3.454,3.537,3.537,0,0,0-.638-1.049Z" transform="translate(-105.072 -210.405)" fill="#263238"/>
          <path id="Path_90738" data-name="Path 90738" d="M121.6,210.411h.068l.191.177a2.842,2.842,0,0,1,.519.832,4.711,4.711,0,0,1-.137,3.564,15.208,15.208,0,0,1-1.175,2.212,16.453,16.453,0,0,0-1.366,2.485,4.752,4.752,0,0,0-.287,2.99,12.291,12.291,0,0,0,1.53,2.964,9.819,9.819,0,0,1,.792,1.557,3.618,3.618,0,0,1,.238,1.694,3.326,3.326,0,0,1-.6,1.544,8.656,8.656,0,0,1-1.024,1.188c-.356.356-.7.7-1.011,1.051a6.515,6.515,0,0,0-.764,1.119,6.282,6.282,0,0,0,.15,5.763,11.006,11.006,0,0,0,.738,1.079,4.2,4.2,0,0,1-.832-1.024,6.241,6.241,0,0,1-.874-3.483,5.709,5.709,0,0,1,1.366-3.618c.314-.369.656-.713,1.011-1.069a4.5,4.5,0,0,0,1.53-2.581,4.989,4.989,0,0,0-.984-3.072,12.289,12.289,0,0,1-1.565-3.028,4.97,4.97,0,0,1,.314-3.168,15.022,15.022,0,0,1,1.366-2.514,14.325,14.325,0,0,0,1.188-2.158,4.711,4.711,0,0,0,.219-3.455,3.7,3.7,0,0,0-.6-1.051Z" transform="translate(-103.52 -210.405)" fill="#263238"/>
        </g>
        <g id="freepik--Shelf--inject-2" transform="translate(0 75.078)">
          <rect id="Rectangle_148554" data-name="Rectangle 148554" width="92.293" height="24.037" rx="1.83" transform="translate(43.784 43.688)" fill="#263238"/>
          <rect id="Rectangle_148555" data-name="Rectangle 148555" width="40.93" height="13.575" rx="0.71" transform="translate(85.328 49.439)" fill="#fff"/>
          <path id="Path_90739" data-name="Path 90739" d="M113.033,75.957a4.917,4.917,0,1,0-4.917,4.917A4.917,4.917,0,0,0,113.033,75.957Z" transform="translate(-43.288 -19.744)" fill="#263238"/>
          <path id="Path_90740" data-name="Path 90740" d="M108.343,81.929a5.75,5.75,0,1,1,5.735-5.75,5.75,5.75,0,0,1-5.735,5.75Zm0-9.833a4.1,4.1,0,1,0,4.1,4.1,4.1,4.1,0,0,0-4.1-4.1Z" transform="translate(-43.514 -19.967)" fill="#e0e0e0"/>
          <path id="Path_90741" data-name="Path 90741" d="M125,71.37a23.735,23.735,0,0,1,.219,4.547A23.832,23.832,0,0,1,125,80.48a26.068,26.068,0,0,1-.2-4.562A25.945,25.945,0,0,1,125,71.37Z" transform="translate(-35.398 -19.623)" fill="#e0e0e0"/>
          <path id="Path_90742" data-name="Path 90742" d="M127.933,71.37a23.736,23.736,0,0,1,.191,4.547,23.836,23.836,0,0,1-.219,4.562,23.83,23.83,0,0,1-.219-4.562,23.738,23.738,0,0,1,.246-4.547Z" transform="translate(-34.343 -19.623)" fill="#e0e0e0"/>
          <path id="Path_90743" data-name="Path 90743" d="M130.836,71.37a23.738,23.738,0,0,1,.219,4.547,23.835,23.835,0,0,1-.219,4.562,26.069,26.069,0,0,1-.2-4.562,25.948,25.948,0,0,1,.2-4.547Z" transform="translate(-33.266 -19.623)" fill="#e0e0e0"/>
          <path id="Path_90744" data-name="Path 90744" d="M133.756,71.37a23.742,23.742,0,0,1,.217,4.55,23.837,23.837,0,0,1-.219,4.562,23.833,23.833,0,0,1-.219-4.562,23.736,23.736,0,0,1,.219-4.547Z" transform="translate(-32.203 -19.623)" fill="#e0e0e0"/>
          <path id="Path_90745" data-name="Path 90745" d="M136.676,71.37a25.948,25.948,0,0,1,.2,4.547,26.075,26.075,0,0,1-.2,4.562,23.833,23.833,0,0,1-.219-4.562,23.735,23.735,0,0,1,.219-4.547Z" transform="translate(-31.135 -19.623)" fill="#e0e0e0"/>
          <path id="Path_90746" data-name="Path 90746" d="M139.586,71.37a23.736,23.736,0,0,1,.219,4.547,23.826,23.826,0,0,1-.219,4.562,23.835,23.835,0,0,1-.219-4.562,23.734,23.734,0,0,1,.219-4.547Z" transform="translate(-30.071 -19.623)" fill="#e0e0e0"/>
          <path id="Path_90747" data-name="Path 90747" d="M142.506,71.37a25.948,25.948,0,0,1,.2,4.547,26.072,26.072,0,0,1-.2,4.562,23.827,23.827,0,0,1-.219-4.562,23.736,23.736,0,0,1,.219-4.547Z" transform="translate(-29.003 -19.623)" fill="#e0e0e0"/>
          <path id="Path_90748" data-name="Path 90748" d="M145.416,71.37a23.735,23.735,0,0,1,.219,4.547,23.832,23.832,0,0,1-.219,4.562,23.832,23.832,0,0,1-.219-4.562,23.737,23.737,0,0,1,.219-4.547Z" transform="translate(-27.94 -19.623)" fill="#e0e0e0"/>
          <path id="Path_90749" data-name="Path 90749" d="M148.339,71.37a25.943,25.943,0,0,1,.2,4.547,26.074,26.074,0,0,1-.2,4.562,23.836,23.836,0,0,1-.219-4.562,23.74,23.74,0,0,1,.219-4.547Z" transform="translate(-26.871 -19.623)" fill="#e0e0e0"/>
          <rect id="Rectangle_148556" data-name="Rectangle 148556" width="92.293" height="24.037" rx="1.38" transform="translate(43.784 20.554)" fill="#455a64"/>
          <rect id="Rectangle_148557" data-name="Rectangle 148557" width="40.93" height="13.575" rx="0.71" transform="translate(85.328 26.29)" fill="#fff"/>
          <path id="Path_90750" data-name="Path 90750" d="M113.033,59.017a4.917,4.917,0,1,0-4.917,4.917,4.917,4.917,0,0,0,4.917-4.917Z" transform="translate(-43.288 -25.939)" fill="#263238"/>
          <path id="Path_90751" data-name="Path 90751" d="M108.335,64.972a5.735,5.735,0,1,1,5.735-5.735,5.735,5.735,0,0,1-5.735,5.735Zm0-9.833a4.1,4.1,0,1,0,4.1,4.1,4.1,4.1,0,0,0-4.1-4.1Z" transform="translate(-43.507 -26.159)" fill="#e0e0e0"/>
          <path id="Path_90752" data-name="Path 90752" d="M125,54.43a23.625,23.625,0,0,1,.219,4.547A23.625,23.625,0,0,1,125,63.526a25.85,25.85,0,0,1-.2-4.547,25.848,25.848,0,0,1,.2-4.549Z" transform="translate(-35.398 -25.818)" fill="#e0e0e0"/>
          <path id="Path_90753" data-name="Path 90753" d="M127.926,54.43a23.624,23.624,0,0,1,.219,4.547,23.63,23.63,0,0,1-.219,4.547,23.626,23.626,0,0,1-.219-4.547,23.626,23.626,0,0,1,.219-4.547Z" transform="translate(-34.336 -25.818)" fill="#e0e0e0"/>
          <path id="Path_90754" data-name="Path 90754" d="M130.836,54.43a23.626,23.626,0,0,1,.219,4.547,23.626,23.626,0,0,1-.219,4.547,25.849,25.849,0,0,1-.2-4.547,25.856,25.856,0,0,1,.2-4.547Z" transform="translate(-33.266 -25.818)" fill="#e0e0e0"/>
          <path id="Path_90755" data-name="Path 90755" d="M133.756,54.43a23.629,23.629,0,0,1,.219,4.547,23.629,23.629,0,0,1-.219,4.547,23.624,23.624,0,0,1-.219-4.547,23.63,23.63,0,0,1,.219-4.547Z" transform="translate(-32.203 -25.818)" fill="#e0e0e0"/>
          <path id="Path_90756" data-name="Path 90756" d="M136.676,54.43a25.852,25.852,0,0,1,.2,4.547,25.849,25.849,0,0,1-.2,4.547,23.628,23.628,0,0,1-.219-4.547A23.634,23.634,0,0,1,136.676,54.43Z" transform="translate(-31.135 -25.818)" fill="#e0e0e0"/>
          <path id="Path_90757" data-name="Path 90757" d="M139.586,54.43a23.626,23.626,0,0,1,.219,4.547,23.625,23.625,0,0,1-.219,4.547,23.625,23.625,0,0,1-.219-4.547A23.628,23.628,0,0,1,139.586,54.43Z" transform="translate(-30.071 -25.818)" fill="#e0e0e0"/>
          <path id="Path_90758" data-name="Path 90758" d="M142.506,54.43a25.853,25.853,0,0,1,.2,4.547,25.849,25.849,0,0,1-.2,4.547,23.628,23.628,0,0,1-.219-4.547A23.63,23.63,0,0,1,142.506,54.43Z" transform="translate(-29.003 -25.818)" fill="#e0e0e0"/>
          <path id="Path_90759" data-name="Path 90759" d="M145.416,54.43a23.628,23.628,0,0,1,.219,4.547,23.625,23.625,0,0,1-.219,4.547,23.63,23.63,0,0,1-.219-4.547,23.628,23.628,0,0,1,.219-4.547Z" transform="translate(-27.94 -25.818)" fill="#e0e0e0"/>
          <path id="Path_90760" data-name="Path 90760" d="M148.339,54.43a25.853,25.853,0,0,1,.2,4.547,25.855,25.855,0,0,1-.2,4.547,23.626,23.626,0,0,1-.219-4.547,23.629,23.629,0,0,1,.219-4.547Z" transform="translate(-26.87 -25.818)" fill="#e0e0e0"/>
          <rect id="Rectangle_148558" data-name="Rectangle 148558" width="92.293" height="24.037" rx="1.71" transform="translate(43.784 67.862)" fill="#e0e0e0"/>
          <rect id="Rectangle_148559" data-name="Rectangle 148559" width="40.93" height="13.575" rx="0.71" transform="translate(85.328 73.598)" fill="#fff"/>
          <path id="Path_90761" data-name="Path 90761" d="M113.033,93.66a4.917,4.917,0,1,0-4.917,4.9,4.917,4.917,0,0,0,4.917-4.9Z" transform="translate(-43.288 -13.275)" fill="#263238"/>
          <path id="Path_90762" data-name="Path 90762" d="M108.335,99.615a5.735,5.735,0,1,1,5.735-5.735,5.735,5.735,0,0,1-5.735,5.735Zm0-9.833a4.1,4.1,0,1,0,4.1,4.1,4.1,4.1,0,0,0-4.1-4.1Z" transform="translate(-43.507 -13.49)" fill="#f5f5f5"/>
          <path id="Path_90763" data-name="Path 90763" d="M125,89.07a23.625,23.625,0,0,1,.219,4.547A23.628,23.628,0,0,1,125,98.166a25.849,25.849,0,0,1-.195-4.546,25.85,25.85,0,0,1,.2-4.547Z" transform="translate(-35.398 -13.151)" fill="#e0e0e0"/>
          <path id="Path_90764" data-name="Path 90764" d="M127.933,89.07a23.622,23.622,0,0,1,.191,4.547,23.627,23.627,0,0,1-.219,4.547,23.628,23.628,0,0,1-.219-4.547A23.628,23.628,0,0,1,127.933,89.07Z" transform="translate(-34.343 -13.151)" fill="#e0e0e0"/>
          <path id="Path_90765" data-name="Path 90765" d="M130.836,89.07a23.629,23.629,0,0,1,.219,4.547,23.624,23.624,0,0,1-.219,4.547,25.859,25.859,0,0,1-.2-4.547,25.858,25.858,0,0,1,.2-4.547Z" transform="translate(-33.266 -13.151)" fill="#e0e0e0"/>
          <path id="Path_90766" data-name="Path 90766" d="M133.756,89.07a23.627,23.627,0,0,1,.217,4.55,23.629,23.629,0,0,1-.219,4.547,23.624,23.624,0,0,1-.219-4.547,23.631,23.631,0,0,1,.219-4.547Z" transform="translate(-32.203 -13.151)" fill="#e0e0e0"/>
          <path id="Path_90767" data-name="Path 90767" d="M136.676,89.07a25.852,25.852,0,0,1,.2,4.547,25.852,25.852,0,0,1-.2,4.547,23.624,23.624,0,0,1-.219-4.547,23.632,23.632,0,0,1,.219-4.547Z" transform="translate(-31.135 -13.151)" fill="#e0e0e0"/>
          <path id="Path_90768" data-name="Path 90768" d="M139.586,89.07a23.626,23.626,0,0,1,.219,4.547,23.625,23.625,0,0,1-.219,4.547,23.625,23.625,0,0,1-.219-4.547,23.626,23.626,0,0,1,.219-4.547Z" transform="translate(-30.071 -13.151)" fill="#e0e0e0"/>
          <path id="Path_90769" data-name="Path 90769" d="M142.506,89.07a25.853,25.853,0,0,1,.2,4.547,25.853,25.853,0,0,1-.2,4.547,23.625,23.625,0,0,1-.219-4.547,23.625,23.625,0,0,1,.219-4.547Z" transform="translate(-29.003 -13.151)" fill="#e0e0e0"/>
          <path id="Path_90770" data-name="Path 90770" d="M145.416,89.07a23.628,23.628,0,0,1,.219,4.547,23.624,23.624,0,0,1-.219,4.547,23.631,23.631,0,0,1-.219-4.547,23.627,23.627,0,0,1,.219-4.547Z" transform="translate(-27.94 -13.151)" fill="#e0e0e0"/>
          <path id="Path_90771" data-name="Path 90771" d="M148.339,89.07a25.853,25.853,0,0,1,.2,4.547,25.855,25.855,0,0,1-.2,4.547,23.627,23.627,0,0,1-.219-4.547A23.629,23.629,0,0,1,148.339,89.07Z" transform="translate(-26.87 -13.151)" fill="#e0e0e0"/>
          <rect id="Rectangle_148560" data-name="Rectangle 148560" width="92.293" height="24.037" rx="1.38" transform="translate(48.084 3.167) rotate(97.57)" fill="#c7cad8"/>
          <rect id="Rectangle_148561" data-name="Rectangle 148561" width="40.93" height="13.575" rx="0.71" transform="translate(36.935 43.587) rotate(97.57)" fill="#fff"/>
          <path id="Path_90772" data-name="Path 90772" d="M84.139,56.049a4.917,4.917,0,1,0-4.221-5.465,4.917,4.917,0,0,0,4.221,5.465Z" transform="translate(-51.813 -28.805)" fill="#263238"/>
          <path id="Path_90773" data-name="Path 90773" d="M79.272,50.654a5.735,5.735,0,1,1,4.93,6.4,5.735,5.735,0,0,1-4.93-6.4Zm9.733,1.3a4.1,4.1,0,1,0-1.585,2.717,4.1,4.1,0,0,0,1.585-2.717Z" transform="translate(-52.054 -29.034)" fill="#e0e0e0"/>
          <path id="Path_90774" data-name="Path 90774" d="M86.678,68.6a23.97,23.97,0,0,1-4.48-.383A23.217,23.217,0,0,1,77.72,67.4a24.747,24.747,0,0,1,4.547.4,25.279,25.279,0,0,1,4.411.805Z" transform="translate(-52.605 -21.075)" fill="#e0e0e0"/>
          <path id="Path_90775" data-name="Path 90775" d="M86.305,71.49a23.8,23.8,0,0,1-4.534-.383,23.218,23.218,0,0,1-4.48-.82,24.58,24.58,0,0,1,4.534.4,25.277,25.277,0,0,1,4.48.805Z" transform="translate(-52.762 -20.019)" fill="#e0e0e0"/>
          <path id="Path_90776" data-name="Path 90776" d="M85.928,74.381A23.8,23.8,0,0,1,81.394,74a23.211,23.211,0,0,1-4.494-.82,24.678,24.678,0,0,1,4.547.4,25.278,25.278,0,0,1,4.48.805Z" transform="translate(-52.905 -18.962)" fill="#e0e0e0"/>
          <path id="Path_90777" data-name="Path 90777" d="M85.534,77.321A23.861,23.861,0,0,1,81,76.939a23.22,23.22,0,0,1-4.48-.82,24.584,24.584,0,0,1,4.534.4,24.582,24.582,0,0,1,4.48.805Z" transform="translate(-53.043 -17.886)" fill="#e0e0e0"/>
          <path id="Path_90778" data-name="Path 90778" d="M85.154,80.161a23.805,23.805,0,0,1-4.534-.383,22.671,22.671,0,0,1-4.48-.82,24.583,24.583,0,0,1,4.534.4,25.277,25.277,0,0,1,4.48.805Z" transform="translate(-53.182 -16.848)" fill="#e0e0e0"/>
          <path id="Path_90779" data-name="Path 90779" d="M84.789,83.051a23.913,23.913,0,0,1-4.588-.383,23.214,23.214,0,0,1-4.48-.82,24.59,24.59,0,0,1,4.534.4,25.278,25.278,0,0,1,4.533.8Z" transform="translate(-53.337 -15.791)" fill="#e0e0e0"/>
          <path id="Path_90780" data-name="Path 90780" d="M84.414,85.941a23.805,23.805,0,0,1-4.534-.383,23.215,23.215,0,0,1-4.48-.82,24.581,24.581,0,0,1,4.534.4,25.279,25.279,0,0,1,4.48.805Z" transform="translate(-53.454 -14.734)" fill="#e0e0e0"/>
          <path id="Path_90781" data-name="Path 90781" d="M84,88.831a23.807,23.807,0,0,1-4.534-.383,23.214,23.214,0,0,1-4.493-.82,24.676,24.676,0,0,1,4.547.4A25.28,25.28,0,0,1,84,88.831Z" transform="translate(-53.607 -13.677)" fill="#e0e0e0"/>
          <path id="Path_90782" data-name="Path 90782" d="M83.614,91.721a23.8,23.8,0,0,1-4.534-.383,23.211,23.211,0,0,1-4.48-.82,24.582,24.582,0,0,1,4.534.4,24.583,24.583,0,0,1,4.48.805Z" transform="translate(-53.746 -12.621)" fill="#e0e0e0"/>
          <rect id="Rectangle_148562" data-name="Rectangle 148562" width="144.149" height="9.505" transform="translate(0 90.697)" fill="#455a64"/>
        </g>
        <g id="freepik--speech-bubble--inject-2" transform="translate(289.871 8.304)">
          <path id="Path_90783" data-name="Path 90783" d="M391.492,96.291a43.975,43.975,0,1,0-71.644,41.954,7.669,7.669,0,0,0,.669.492h0a51.026,51.026,0,0,0,35.248,8.891,39.509,39.509,0,0,0,11.642-3.25A44.057,44.057,0,0,0,391.5,96.293Z" transform="translate(-291.123 -60.495)" fill="#fff"/>
          <g id="Group_292836" data-name="Group 292836" transform="translate(57.172 60.055)" opacity="0.3">
            <path id="Path_90784" data-name="Path 90784" d="M336.7,104.62v.014h.014Z" transform="translate(-336.47 -104.513)" fill="#fff"/>
            <path id="Path_90785" data-name="Path 90785" d="M336.69,104.62l.014.014Z" transform="translate(-336.473 -104.513)" fill="#fff"/>
            <path id="Path_90786" data-name="Path 90786" d="M336.674,104.6l-.014.014.027.014Z" transform="translate(-336.484 -104.52)" fill="#fff"/>
            <path id="Path_90787" data-name="Path 90787" d="M336.65,104.59Z" transform="translate(-336.487 -104.525)" fill="#fff"/>
            <path id="Path_90788" data-name="Path 90788" d="M336.664,104.56Z" transform="translate(-336.487 -104.535)" fill="#fff"/>
            <path id="Path_90789" data-name="Path 90789" d="M336.7,104.61Z" transform="translate(-336.47 -104.516)" fill="#fff"/>
            <path id="Path_90790" data-name="Path 90790" d="M336.666,104.611V104.6l-.1-.055.082.082Z" transform="translate(-336.516 -104.542)" fill="#fff"/>
            <path id="Path_90791" data-name="Path 90791" d="M336.64,104.58v.014h.014Z" transform="translate(-336.492 -104.528)" fill="#fff"/>
            <path id="Path_90792" data-name="Path 90792" d="M336.7,104.6h-.014v.014Z" transform="translate(-336.473 -104.52)" fill="#fff"/>
            <path id="Path_90793" data-name="Path 90793" d="M336.694,104.61h-.014l.014.014Z" transform="translate(-336.476 -104.516)" fill="#fff"/>
            <path id="Path_90794" data-name="Path 90794" d="M336.68,104.67Z" transform="translate(-336.476 -104.495)" fill="#fff"/>
            <path id="Path_90795" data-name="Path 90795" d="M336.644,104.614v.014l-.014-.014v.027h.027l-.014-.014h.014v-.014h.014l-.04-.014Z" transform="translate(-336.495 -104.521)" fill="#fff"/>
            <path id="Path_90796" data-name="Path 90796" d="M336.653,104.642l.014-.027V104.6l-.137.027Z" transform="translate(-336.531 -104.52)" fill="#fff"/>
            <path id="Path_90797" data-name="Path 90797" d="M336.7,104.64Z" transform="translate(-336.473 -104.506)" fill="#fff"/>
            <path id="Path_90798" data-name="Path 90798" d="M336.632,104.7l-.042.219.1-.191v-.082Z" transform="translate(-336.509 -104.502)" fill="#fff"/>
            <path id="Path_90799" data-name="Path 90799" d="M336.694,104.64Z" transform="translate(-336.477 -104.506)" fill="#fff"/>
          </g>
          <path id="Path_90801" data-name="Path 90801" d="M336.68,104.64Z" transform="translate(-279.304 -44.452)" fill="#c7cad8"/>
          <path id="Path_90803" data-name="Path 90803" d="M336.667,104.614V104.6l-.137.027.119.014Z" transform="translate(-279.36 -44.466)" fill="#c7cad8"/>
          <path id="Path_90805" data-name="Path 90805" d="M336.59,104.923l.1-.191v-.082l-.055.055Z" transform="translate(-279.338 -44.448)" fill="#c7cad8"/>
          <path id="Path_90806" data-name="Path 90806" d="M336.644,104.614v.014l-.014-.014v.027h.027l-.014-.014h.014v-.014h.014l-.04-.014Z" transform="translate(-279.322 -44.466)" fill="#c7cad8"/>
          <path id="Path_90808" data-name="Path 90808" d="M336.69,104.64Z" transform="translate(-279.3 -44.452)" fill="#c7cad8"/>
          <path id="Path_90810" data-name="Path 90810" d="M336.68,104.67Z" transform="translate(-279.304 -44.441)" fill="#c7cad8"/>
          <path id="Path_90811" data-name="Path 90811" d="M374.231,107.1c0,.191-13.261.356-29.635.356s-29.6-.109-29.6-.356,13.275-.356,29.635-.356S374.231,106.946,374.231,107.1Z" transform="translate(-287.232 -43.684)" fill="#263238"/>
          <path id="Path_90812" data-name="Path 90812" d="M355.968,110.365c0,.2-6.965.356-15.569.356s-15.569-.15-15.569-.356,6.965-.356,15.569-.356S355.968,110.174,355.968,110.365Z" transform="translate(-283.637 -42.488)" fill="#263238"/>
          <path id="Path_90813" data-name="Path 90813" d="M344.794,112.865a40.044,40.044,0,0,1-10.843,0,41.572,41.572,0,0,1,10.843,0Z" transform="translate(-280.302 -41.574)" fill="#263238"/>
          <g id="Group_292837" data-name="Group 292837" transform="translate(13.319 0.794)" opacity="0.5">
            <path id="Path_90814" data-name="Path 90814" d="M346.66,61.63,341.7,90.569h.119l-5.094,29.415,13.082-26.847h0L361.8,68.445a44.429,44.429,0,0,0-15.146-6.814Z" transform="translate(-292.605 -60.974)" fill="#ef5a5a"/>
            <path id="Path_90815" data-name="Path 90815" d="M336.68,104.64Z" transform="translate(-292.623 -45.246)" fill="#fff"/>
            <path id="Path_90816" data-name="Path 90816" d="M304.42,94.22a43.126,43.126,0,0,0,2.212,12.292c.1.287.2.546.314.82l11.417.3h0l30.045.752Z" transform="translate(-304.42 -49.057)" fill="#ef5a5a"/>
            <path id="Path_90817" data-name="Path 90817" d="M336.667,104.614V104.6l-.137.027.119.014Z" transform="translate(-292.677 -45.26)" fill="#fff"/>
            <path id="Path_90818" data-name="Path 90818" d="M391.528,104.335,348.154,116h-.195v-.15l-.082.1H347.8L313.034,73.43a44.982,44.982,0,0,0-7.169,13.93l17.194,11.706h0l24.691,16.808h-.109l.238.164h0l.1.082v-.1h.177l40.178,1.011a43.964,43.964,0,0,0,3.207-12.7Z" transform="translate(-303.892 -56.66)" fill="#ef5a5a"/>
            <path id="Path_90819" data-name="Path 90819" d="M336.59,104.923l.1-.191v-.082l-.055.055Z" transform="translate(-292.655 -45.242)" fill="#fff"/>
            <path id="Path_90820" data-name="Path 90820" d="M336.644,104.614v.014l-.014-.014v.027h.027l-.014-.014h.014v-.014h.014l-.04-.014Z" transform="translate(-292.642 -45.26)" fill="#fff"/>
            <path id="Path_90821" data-name="Path 90821" d="M320,66.9l10.929,25.839h0l11.731,27.641-3.454-29.84h0L335.842,61.15a41.442,41.442,0,0,0-5.367,1.175A43,43,0,0,0,320,66.9Z" transform="translate(-298.722 -61.15)" fill="#ef5a5a"/>
            <path id="Path_90822" data-name="Path 90822" d="M336.69,104.64Z" transform="translate(-292.62 -45.246)" fill="#fff"/>
            <path id="Path_90823" data-name="Path 90823" d="M379.3,89.383a44.166,44.166,0,0,0-6.1-14.163L356.959,92.974h0L336.69,115.167Z" transform="translate(-292.62 -56.005)" fill="#ef5a5a"/>
            <path id="Path_90824" data-name="Path 90824" d="M336.68,104.67Z" transform="translate(-292.623 -45.235)" fill="#fff"/>
          </g>
          <path id="Path_90825" data-name="Path 90825" d="M341.593,91a18.723,18.723,0,0,0-18.723,18.737h37.456A18.737,18.737,0,0,0,341.593,91Z" transform="translate(-284.355 -49.439)" fill="#ef5a5a"/>
          <path id="Path_90826" data-name="Path 90826" d="M388.379,104.665c0,.2-18.232.356-40.711.356s-40.7-.15-40.7-.356,18.218-.356,40.7-.356S388.379,104.474,388.379,104.665Z" transform="translate(-290.169 -44.573)" fill="#263238"/>
          <path id="Path_90827" data-name="Path 90827" d="M391.563,96.363a2.569,2.569,0,0,0,.15.7,20.179,20.179,0,0,1,.356,2.048,44.055,44.055,0,0,1,.4,8.03,44.788,44.788,0,0,1-2.485,12.456A44.152,44.152,0,0,1,381.5,134.1a36.209,36.209,0,0,1-3.374,3.427,40.958,40.958,0,0,1-3.879,3.2c-.682.519-1.434.95-2.158,1.448a19.749,19.749,0,0,1-2.268,1.366l-2.39,1.27c-.82.383-1.663.738-2.527,1.051a46.686,46.686,0,0,1-23.212,1.911,53.261,53.261,0,0,1-18.041-6.6c-.969-.546-1.9-1.161-2.84-1.776a19.009,19.009,0,0,1-2.622-2.158,43.7,43.7,0,0,1-13.261-24.091,42.062,42.062,0,0,1-.3-14.136,47.264,47.264,0,0,1,1.461-6.828l1.148-3.237a33.1,33.1,0,0,1,1.366-3.114,43.7,43.7,0,0,1,7.4-10.929l1.079-1.2,1.188-1.107c.805-.713,1.544-1.488,2.376-2.138a44.978,44.978,0,0,1,5.149-3.647,43.182,43.182,0,0,1,22.412-6.241,39.224,39.224,0,0,1,5.465.314c1.775.164,3.469.614,5.163.9,1.639.5,3.263.929,4.793,1.488l2.257.942a16.284,16.284,0,0,1,2.148.98,42.553,42.553,0,0,1,17.479,15.758,26.968,26.968,0,0,1,1.57,2.613c.437.874.832,1.707,1.23,2.485l.546,1.148c.15.383.287.764.423,1.133l.738,2.035a20.087,20.087,0,0,1,.942,3.263c.219.874.369,1.544.492,2.035a6.261,6.261,0,0,1,.137.7s-.082-.238-.2-.682-.314-1.148-.561-2.008a23.659,23.659,0,0,0-1-3.237c-.246-.628-.5-1.366-.778-2.019l-.423-1.107-.574-1.133c-.383-.778-.805-1.6-1.243-2.458a26.841,26.841,0,0,0-1.583-2.581,47.1,47.1,0,0,0-4.1-5.464,44.7,44.7,0,0,0-13.288-10.01,17.982,17.982,0,0,0-2.138-.969l-2.226-.9c-1.516-.561-3.128-.969-4.752-1.461-1.663-.273-3.332-.713-5.081-.874a38.621,38.621,0,0,0-5.354-.273,42.582,42.582,0,0,0-22.084,6.2,43.709,43.709,0,0,0-5.1,3.547c-.82.643-1.544,1.366-2.335,2.117L317.6,74.136l-1.069,1.2a42.993,42.993,0,0,0-7.265,10.829c-.437,1.024-1,1.995-1.366,3.072s-.738,2.117-1.119,3.181a50.031,50.031,0,0,0-1.474,6.664,41.036,41.036,0,0,0,.314,13.971,42.95,42.95,0,0,0,13.028,23.722,18.261,18.261,0,0,0,2.54,2.09c.916.614,1.844,1.2,2.732,1.747a49.173,49.173,0,0,0,5.79,2.95,51.212,51.212,0,0,0,12.006,3.592,46.123,46.123,0,0,0,22.927-1.8c.847-.314,1.68-.656,2.485-1.037l2.363-1.23a18.227,18.227,0,0,0,2.24-1.366c.725-.475,1.461-.9,2.138-1.366a46.127,46.127,0,0,0,3.838-3.142,39.125,39.125,0,0,0,3.359-3.374,44.262,44.262,0,0,0,8.482-14.312,45.913,45.913,0,0,0,2.581-12.292,47.8,47.8,0,0,0-.259-7.989l-.287-2.062C391.576,96.667,391.563,96.363,391.563,96.363Z" transform="translate(-291.195 -60.569)" fill="#263238"/>
          <path id="Path_90828" data-name="Path 90828" d="M305.736,117.614a5.465,5.465,0,1,1-5.465-5.465A5.465,5.465,0,0,1,305.736,117.614Z" transform="translate(-294.616 -41.706)" fill="#fff"/>
          <path id="Path_90829" data-name="Path 90829" d="M305.787,117.66a4.268,4.268,0,0,0-.287-1.284,5.354,5.354,0,0,0-1.967-2.84,5.244,5.244,0,0,0-4.9-.7,5.163,5.163,0,1,0,4.9,8.958,5.465,5.465,0,0,0,1.967-2.84c.238-.82.238-1.3.288-1.3a1.235,1.235,0,0,1,0,.356,4.587,4.587,0,0,1-.109,1,5.325,5.325,0,0,1-1.953,3.1,5.558,5.558,0,0,1-5.312.86,5.64,5.64,0,0,1,0-10.625,5.557,5.557,0,0,1,5.312.86,5.312,5.312,0,0,1,1.953,3.114,4.427,4.427,0,0,1,.109,1,1.083,1.083,0,0,1,0,.341Z" transform="translate(-294.667 -41.753)" fill="#263238"/>
        </g>
        <g id="freepik--Device--inject-2" transform="translate(340.527 201.821)">
          <path id="Path_90898" data-name="Path 90898" d="M447.677,203H363.134c-2.8,0-5.465,1.461-5.9,4.467l-11.268,69.067H301.482a2.827,2.827,0,0,0,0,5.627h142.1l9.765-72.054A6.023,6.023,0,0,0,447.677,203Z" transform="translate(-298.774 -203)" fill="#e0e0e0"/>
          <path id="Path_90899" data-name="Path 90899" d="M447.721,203a8.192,8.192,0,0,1,1.461.238,5.724,5.724,0,0,1,3.278,2.635,6.377,6.377,0,0,1,.874,3,9.32,9.32,0,0,1-.15,1.816c-.082.643-.177,1.3-.273,1.995-.369,2.732-.805,5.914-1.284,9.477-1.939,14.255-4.726,34.8-8.2,59.981l.15-.119H301.5a3,3,0,0,1-.847-.164A2.528,2.528,0,0,1,299.4,280.7a2.732,2.732,0,0,1,.45-3.237,2.258,2.258,0,0,1,1.53-.7h44.746v-.15c3.769-23.212,7.293-44.785,10.447-64.188.191-1.2.4-2.417.587-3.6.1-.587.191-1.2.3-1.776a4.808,4.808,0,0,1,.713-1.57,5.135,5.135,0,0,1,2.732-1.939,7.145,7.145,0,0,1,1.68-.314h-.014a7.723,7.723,0,0,0-1.747.314,5.465,5.465,0,0,0-2.937,2.048,5.043,5.043,0,0,0-.752,1.68c-.119.614-.2,1.2-.314,1.8-.191,1.188-.4,2.39-.587,3.6-3.168,19.393-6.7,40.971-10.488,64.188l.164-.15H301.382a2.622,2.622,0,0,0-1.762.805,3.168,3.168,0,0,0-.561,3.332,2.851,2.851,0,0,0,1.448,1.366,2.73,2.73,0,0,0,.984.177H443.707v-.177c3.374-25.184,6.118-45.724,8.016-59.991.475-3.564.9-6.732,1.257-9.477.1-.7.191-1.366.273-1.98a9.557,9.557,0,0,0,.119-1.844,6.352,6.352,0,0,0-.9-3.046,5.736,5.736,0,0,0-3.333-2.635,4.737,4.737,0,0,0-1.093-.177Z" transform="translate(-298.815 -203)" fill="#263238"/>
          <path id="Path_90900" data-name="Path 90900" d="M370.29,234.929a5.872,5.872,0,1,0,5.872-5.872A5.872,5.872,0,0,0,370.29,234.929Z" transform="translate(-272.679 -193.47)" fill="#fff"/>
          <path id="Path_90901" data-name="Path 90901" d="M336.531,281.294c.137,0,3.114-17.372,6.664-38.846s6.309-38.9,6.187-38.92-3.114,17.372-6.664,38.846S336.408,281.267,336.531,281.294Z" transform="translate(-285.026 -202.808)" fill="#263238"/>
        </g>
      </g>
      <g id="freepik--Character--inject-2" transform="translate(59.489 155.608)">
        <path id="Path_90830" data-name="Path 90830" d="M156,202.809s5.144,45.538,8.279,55.226,9.6,18.1,17.919,16.9c7.1-1.029,11.993-5.524,17.292-15.873,4.518-8.839,13.768-33.026,13.768-33.026L202.3,199.83,181.2,238.65l-10.312-39.458Z" transform="translate(-45.717 -76.309)" fill="#ffc2a9"/>
        <path id="Path_90831" data-name="Path 90831" d="M182.244,252.368c-.1,0,.142-1.183.237-3.052a23.525,23.525,0,0,0-.8-7.239,23.17,23.17,0,0,0-3.04-6.624,26.958,26.958,0,0,1-1.775-2.485,9,9,0,0,1,2.129,2.236,20.109,20.109,0,0,1,3.292,6.707,20.391,20.391,0,0,1,.639,7.44A9.467,9.467,0,0,1,182.244,252.368Z" transform="translate(-41.932 -70.198)" fill="#6f4439"/>
        <path id="Path_90832" data-name="Path 90832" d="M138.06,185.255l1.183,3.856s3.761,6.695,5.181,7.593,6.021,2.129,7.558,3.82,3.938,6.033,6.482,8.221l5.169,4.471,11.009-6.893a27.016,27.016,0,0,0,1.04-7.1c-.117-3.206-2.991-16.831-2.991-16.831a21.6,21.6,0,0,0-3.454-4.637c-1.691-1.491-2.094-1.7-2.614.947s0,3.217.769,5.677,1.5,5.112.45,6.092-4.92.926-4.92.926l-2.733-3.359-.651-5.5,2.578-3.063s5.772-.13,5.524-3.549l-7-.142-5.571,3.973-.866,2.152-.347-6.565s1.749-6.707-2.152-6.944l-.45.071-1.467,6.742-.486,5.914s-1.7-10.138-5.7-8.61l-.72.745s2.709,10.645,3.075,12.5,3.553,6.813,3.553,6.813l-2.8-.355-3.265-3.324S141.538,180.689,138.06,185.255Z" transform="translate(-48.922 -81.796)" fill="#ffc2a9"/>
        <path id="Path_90833" data-name="Path 90833" d="M155.449,193.7c-.142.118-1.337-1.242-3.146-2.469s-3.549-1.869-3.442-2.035a9.619,9.619,0,0,1,6.585,4.506Z" transform="translate(-46.965 -78.041)" fill="#6f4439"/>
        <path id="Path_90834" data-name="Path 90834" d="M166.671,195.082a18.285,18.285,0,0,0-6.079-1.387,18.05,18.05,0,0,0-6.092,1.313,4.013,4.013,0,0,1,1.6-1.018,11.272,11.272,0,0,1,8.989,0,4.2,4.2,0,0,1,1.584,1.089Z" transform="translate(-45.953 -77.344)" fill="#6f4439"/>
        <path id="Path_90835" data-name="Path 90835" d="M153.093,187.8a10.045,10.045,0,0,1-4.669-7.1c.166,0,.769,1.786,2.07,3.726S153.21,187.666,153.093,187.8Z" transform="translate(-47.043 -79.566)" fill="#6f4439"/>
        <path id="Path_90836" data-name="Path 90836" d="M340.24,198.987s-5.144,45.538-8.279,55.237-9.605,18.1-17.921,16.9c-7.1-1.029-11.993-5.524-17.285-15.873-4.527-8.839-13.777-33.026-13.777-33.026l10.969-26.207,21.1,38.821,10.311-39.458Z" transform="translate(-22.94 -76.992)" fill="#ffc2a9"/>
        <path id="Path_90837" data-name="Path 90837" d="M306.139,248.544a9.25,9.25,0,0,1-.72-2.968,21.915,21.915,0,0,1,.319-7.408,18.583,18.583,0,0,1,2.984-6.777,13.268,13.268,0,0,1,1.455-1.715c.39-.366.607-.557.639-.52s-.72.926-1.727,2.485a20.63,20.63,0,0,0-2.744,6.659C305.086,243.9,306.363,248.544,306.139,248.544Z" transform="translate(-18.85 -70.882)" fill="#6f4439"/>
        <path id="Path_90838" data-name="Path 90838" d="M355.155,181.438l-1.183,3.856s-3.761,6.695-5.181,7.582-6.021,2.129-7.558,3.832-3.938,6.032-6.482,8.221-5.169,4.459-5.169,4.459L318.573,202.5a27.556,27.556,0,0,1-1.04-7.1c.118-3.206,2.992-16.843,2.992-16.843a21.642,21.642,0,0,1,3.454-4.625c1.691-1.491,2.094-1.7,2.614.947s0,3.217-.757,5.677-1.5,5.112-.461,6.092,4.92.926,4.92.926l2.791-3.265.639-5.512-2.626-3.087s-5.772-.13-5.524-3.549l7-.142,5.571,3.962.866,2.152.347-6.565s-1.749-6.707,2.152-6.944l.45.071,1.467,6.742.486,5.914s1.7-10.138,5.7-8.61l.72.745s-2.7,10.645-3.075,12.5-3.548,6.813-3.548,6.813l2.815-.355,3.253-3.336S351.7,176.9,355.155,181.438Z" transform="translate(-16.701 -82.472)" fill="#ffc2a9"/>
        <path id="Path_90839" data-name="Path 90839" d="M333,189.917a9.466,9.466,0,0,1,6.6-4.506c0,.166-1.646.793-3.442,2.035S333.1,190.035,333,189.917Z" transform="translate(-13.862 -78.72)" fill="#6f4439"/>
        <path id="Path_90840" data-name="Path 90840" d="M322.61,191.311a4.2,4.2,0,0,1,1.584-1.04,11.317,11.317,0,0,1,4.5-.969,11.071,11.071,0,0,1,4.495.926,4.013,4.013,0,0,1,1.6,1.018,18.048,18.048,0,0,0-6.092-1.313,18.282,18.282,0,0,0-6.079,1.387Z" transform="translate(-15.739 -78.02)" fill="#6f4439"/>
        <path id="Path_90841" data-name="Path 90841" d="M335,183.987c-.118-.142,1.325-1.407,2.6-3.371s1.906-3.773,2.079-3.726a7.735,7.735,0,0,1-1.56,4.072A7.614,7.614,0,0,1,335,183.987Z" transform="translate(-13.499 -80.251)" fill="#6f4439"/>
        <path id="Path_90842" data-name="Path 90842" d="M289.6,354.14l21.479,126.6h-6.355L275.39,354.14Z" transform="translate(-24.263 -48.857)" fill="#453f3f"/>
        <path id="Path_90843" data-name="Path 90843" d="M218.808,354.14l-21.468,127.1h6.338l29.336-127.1Z" transform="translate(-38.277 -48.857)" fill="#453f3f"/>
        <rect id="Rectangle_148563" data-name="Rectangle 148563" width="110.745" height="16.962" rx="6.12" transform="translate(161.82 288.781)" fill="#455a64"/>
        <path id="Path_90844" data-name="Path 90844" d="M261.916,106.449c4-4.258,13.684-3.466,15.947-.579a7.38,7.38,0,0,1,9.628,3.371l10.288,2.366a10.846,10.846,0,0,1,4.92,2.079c1.337,1.183,1.94,3.43.793,4.836,3.619.994,4.968,6.434,2.223,9a3.915,3.915,0,0,1-.662,5.659,39.2,39.2,0,0,1,6.47,11.591,8.007,8.007,0,0,1,.426,5.453c-.674,1.727-2.992,2.9-4.483,1.786a4.566,4.566,0,0,1,.142,4.945c1.749.071,2.223,2.778,1.005,4.034s-3.17,1.349-4.92,1.277-3.632-.189-5.086.793a1.6,1.6,0,0,0,.557,1.112A7.192,7.192,0,0,1,300.68,174l-.591.793c-1.029,1.42-3.548,2.7-5.122,3.49-3.986,1.987-6.325,1.56-10.752,2.129,1.183,2.859-6.092,9.049-14.2,2.733a158.082,158.082,0,0,1-45.146,5.406c-2.366,0-5.311-.4-6.352-2.59a5.914,5.914,0,0,1-5.489-1.892,17.744,17.744,0,0,1-3.157-5.157,10.515,10.515,0,0,1-7.428-9.592,13.011,13.011,0,0,1-4.733-9.32,7.626,7.626,0,0,1-4.21-10.373,46.13,46.13,0,0,1,5.24-14.2c-2.755-.639-3.738-4.388-2.567-6.966s3.727-4.2,6.138-5.69c-2.079.52-3.844-2.106-3.312-4.175s2.426-3.549,4.27-4.566a39.03,39.03,0,0,1,8.642-3.69c1.04-3.632,5.762-7.7,9.191-9.26,13.865-6.3,23.537-7.8,40.877,5.322" transform="translate(-39.203 -94.695)" fill="#263238"/>
        <path id="Path_90845" data-name="Path 90845" d="M218.81,129.528c1.242-9.465,8.279-20.687,17.743-19.043l29.038,9.465a5.571,5.571,0,0,1,4.6,5.985l-8.008,63.114c-.686,8.279-4.388,14.985-12.6,15.968h0a17.423,17.423,0,0,1-19.445-17.743c.1-4.353.173-7.626.173-7.605s-11.993-2.839-13.437-18.841C216.161,152.912,217.426,140.033,218.81,129.528Z" transform="translate(-34.828 -92.147)" fill="#ffc2a9"/>
        <path id="Path_90846" data-name="Path 90846" d="M228.25,137.3c-.237-.284-1.852.72-4.045.532s-3.69-1.42-3.951-1.183.095.617.745,1.183a5.556,5.556,0,0,0,3.134,1.266,5.311,5.311,0,0,0,3.241-.757C228.072,137.874,228.329,137.423,228.25,137.3Z" transform="translate(-34.147 -87.341)" fill="#263238"/>
        <path id="Path_90847" data-name="Path 90847" d="M246.041,138.006c-.249-.26-1.786.887-3.973.887s-3.8-1.089-4.045-.816.142.592.852,1.1a5.535,5.535,0,0,0,3.229.982,5.44,5.44,0,0,0,3.17-1.029C245.935,138.657,246.172,138.169,246.041,138.006Z" transform="translate(-30.951 -87.093)" fill="#263238"/>
        <path id="Path_90848" data-name="Path 90848" d="M231.855,150.023a14.191,14.191,0,0,0-3.548-.887c-.557-.095-1.076-.237-1.183-.627a2.91,2.91,0,0,1,.486-1.633l1.94-4.128c2.709-5.914,4.733-10.751,4.459-10.858s-2.614,4.577-5.322,10.468c-.651,1.455-1.277,2.839-1.869,4.175a3.206,3.206,0,0,0-.437,2.167,1.386,1.386,0,0,0,.866.876,3.418,3.418,0,0,0,.934.206,14.387,14.387,0,0,0,3.678.249Z" transform="translate(-33.037 -88.205)" fill="#263238"/>
        <path id="Path_90849" data-name="Path 90849" d="M228.207,169.651a40.286,40.286,0,0,0,21.586-4.21s-5.914,10.526-21.634,7.96Z" transform="translate(-32.726 -82.071)" fill="#eca182"/>
        <path id="Path_90850" data-name="Path 90850" d="M238.582,128.346c.213.607,2.366.32,4.967.639s4.648,1.018,4.991.486c.153-.26-.206-.816-1.04-1.4a8.729,8.729,0,0,0-7.593-.852C238.972,127.606,238.487,128.068,238.582,128.346Z" transform="translate(-30.84 -89.148)" fill="#263238"/>
        <path id="Path_90851" data-name="Path 90851" d="M221.557,126.389c.347.52,1.881.118,3.7.213s3.312.557,3.7.071c.173-.249,0-.757-.674-1.277a5.382,5.382,0,0,0-5.972-.224C221.64,125.647,221.4,126.143,221.557,126.389Z" transform="translate(-33.904 -89.577)" fill="#263238"/>
        <path id="Path_90852" data-name="Path 90852" d="M212.315,137.88a10.87,10.87,0,0,1,2.791-6.766c.947-.982,2.152-1.7,3-2.768,1.833-2.366,1.655-5.571,2.484-8.4a11.981,11.981,0,0,1,7.605-7.878c2.992-.994,6.363-.769,9.191-2.188,2.079-1.053,3.7-2.91,5.843-3.832,4.187-1.8,8.93.437,12.786,2.859.7,3.111-1.325,5.762-3.276,8.279a11.058,11.058,0,0,1-8.279,4.246c-2.485.095-5.357-.532-7.1,1.183s-1.242,5.112-2.791,7.2c-2.223,2.992-7.1,1.727-10.361,3.549-2.519,1.4-3.632,4.342-4.945,6.908s-3.549,5.216-6.412,5.016a32.029,32.029,0,0,1-.541-7.414Z" transform="translate(-35.603 -93.046)" fill="#263238"/>
        <path id="Path_90853" data-name="Path 90853" d="M243.92,113a56.23,56.23,0,0,1,21.148,4.332,10.186,10.186,0,0,1,5.144,3.727,10,10,0,0,1,.97,5.524c-.206,5.914-2.768,13.153-5.157,18.593l-7.522,4.258c-5.677-1.478-2.826-11.283-2.426-16.216a11.662,11.662,0,0,1-6.576-10.467A12.892,12.892,0,0,1,243.92,113Z" transform="translate(-29.902 -91.657)" fill="#263238"/>
        <path id="Path_90854" data-name="Path 90854" d="M256.445,142.488c.309-3.4,4.495-3.951,7.366-2.129,1.584.994,2.744,2.922,2.449,6.517-.769,9.6-10.256,6.846-10.243,6.565S256.089,146.484,256.445,142.488Z" transform="translate(-27.705 -86.843)" fill="#ffc2a9"/>
        <path id="Path_90855" data-name="Path 90855" d="M258.752,149.561a3.022,3.022,0,0,0,.426.284,1.715,1.715,0,0,0,1.242.13c1.053-.3,2.035-1.833,2.223-3.549a5.465,5.465,0,0,0-.284-2.436,1.955,1.955,0,0,0-1.183-1.387.852.852,0,0,0-1.029.379c-.142.26-.1.45-.153.461s-.189-.173-.086-.568a1.1,1.1,0,0,1,.426-.568,1.266,1.266,0,0,1,.947-.166,2.366,2.366,0,0,1,1.62,1.62,5.738,5.738,0,0,1,.366,2.733c-.213,1.928-1.348,3.654-2.768,3.951a1.82,1.82,0,0,1-1.513-.379C258.74,149.8,258.716,149.572,258.752,149.561Z" transform="translate(-27.208 -86.335)" fill="#6f4439"/>
        <path id="Path_90856" data-name="Path 90856" d="M265.922,161.093a8.6,8.6,0,0,0,1.537,0,5.915,5.915,0,0,0,1.691-.473l-.1-.059a4.733,4.733,0,0,0,7.547,3.217h-.166a2.011,2.011,0,0,0,1.242.876,2.933,2.933,0,0,0,1.56-.095,2.566,2.566,0,0,0,1.277-.994,3.313,3.313,0,0,0,.52-1.573,4.9,4.9,0,0,0-.969-3.229,14.7,14.7,0,0,0-2.469-2.531v.224a3.359,3.359,0,0,0,1.573-2.236,5,5,0,0,0-.206-2.851,7.605,7.605,0,0,0-1.633-2.436,23.466,23.466,0,0,0-2.223-1.975v.213a3.553,3.553,0,0,0,1.018-2.768,5.181,5.181,0,0,0-1.018-2.886,13.011,13.011,0,0,0-4.612-3.38l.071.173a6.387,6.387,0,0,0-6.753-8.059l.153.173a5.5,5.5,0,0,0-1.183-4.733,5.406,5.406,0,0,0-4.013-2.094l.118.118a5.429,5.429,0,0,0-2.094-4.246,5.286,5.286,0,0,0-3.986-1.183l.1.095a5.311,5.311,0,0,0-.72-2.484,6.872,6.872,0,0,0-1.42-1.8,5.546,5.546,0,0,0-3.253-1.5h-.7a4.732,4.732,0,0,0-.617,0,6.845,6.845,0,0,0-.926.237l-.544.213-.173.086h.189l.544-.189a7.258,7.258,0,0,1,.926-.213,4.732,4.732,0,0,1,.607,0,1.525,1.525,0,0,1,.331,0h.355a5.323,5.323,0,0,1,3.149,1.509,6.387,6.387,0,0,1,1.371,1.774,5.063,5.063,0,0,1,.686,2.366v.118h.1a5.086,5.086,0,0,1,3.832,1.183,5.18,5.18,0,0,1,1.975,4.072v.118h.118a5.477,5.477,0,0,1,4.945,6.494v.189h.189a6.1,6.1,0,0,1,6.434,7.7v.118h.1a12.825,12.825,0,0,1,4.506,3.3,4.9,4.9,0,0,1,.958,2.72,3.276,3.276,0,0,1-.926,2.543l-.118.118.13.1a11.259,11.259,0,0,1,3.773,4.293,4.6,4.6,0,0,1,.206,2.675,3.11,3.11,0,0,1-1.44,2.07l-.166.095.142.13a13.814,13.814,0,0,1,2.449,2.469,4.648,4.648,0,0,1,.934,3.063,2.6,2.6,0,0,1-1.633,2.366,2.141,2.141,0,0,1-2.531-.674l-.059-.1-.1.071a4.612,4.612,0,0,1-4.852.347,4.733,4.733,0,0,1-2.366-3.4v-.173h-.095a5.818,5.818,0,0,1-1.655.473,9.648,9.648,0,0,1-1.513.086,5.914,5.914,0,0,1-2.366-.508,2.272,2.272,0,0,1-1.1-.969,4.658,4.658,0,0,1-.173-.473.632.632,0,0,0,0,.13,1.544,1.544,0,0,0,.118.366,2.235,2.235,0,0,0,1.089,1.018" transform="translate(-29.801 -91.729)" fill="#455a64"/>
        <path id="Path_90857" data-name="Path 90857" d="M298.842,150.367a3.8,3.8,0,0,0,.379-.579,4.909,4.909,0,0,0,.544-1.881,4.791,4.791,0,0,0-.71-3.04,5.156,5.156,0,0,0-3.43-2.294l.071.118a6.611,6.611,0,0,0-.757-4.733,6.276,6.276,0,0,0-1.833-2.046,16.7,16.7,0,0,0-2.6-1.3,5.228,5.228,0,0,1-1.242-.78,3.347,3.347,0,0,1-.852-1.183c-.4-.934-.52-2.023-1.04-3.028a5.819,5.819,0,0,0-5.789-3.045l.166.166a7.7,7.7,0,0,0-8.334-8.93l.153.166a6.766,6.766,0,0,0-10.373-6.576h.153a9.178,9.178,0,0,0-3.3-2.129,14.3,14.3,0,0,0-3.441-.876,16.264,16.264,0,0,0-5.7.26,11.832,11.832,0,0,0-3.43,1.325,8.958,8.958,0,0,0-.793.557l-.26.206s.366-.26,1.1-.686a11.318,11.318,0,0,1,3.407-1.254,16.153,16.153,0,0,1,5.659-.206,13.7,13.7,0,0,1,3.37.887,9.108,9.108,0,0,1,3.229,2.079l.059.071h.095a6.494,6.494,0,0,1,9.948,6.316v.189h.189a7.44,7.44,0,0,1,8.02,8.6v.189h.189A5.594,5.594,0,0,1,287.2,129.8c.486.947.607,2.035,1.029,3.017a3.547,3.547,0,0,0,.926,1.289,5.639,5.639,0,0,0,1.313.816,15.706,15.706,0,0,1,2.572,1.27,6.173,6.173,0,0,1,1.775,1.955,6.4,6.4,0,0,1,.769,4.612v.095h.1a4.991,4.991,0,0,1,3.336,2.188,4.733,4.733,0,0,1,.745,2.947,5.014,5.014,0,0,1-.5,1.869A2.612,2.612,0,0,0,298.842,150.367Z" transform="translate(-29.491 -92.522)" fill="#455a64"/>
        <path id="Path_90858" data-name="Path 90858" d="M197.44,136.629s0-.059.1-.173l.284-.532c.237-.486.591-1.183,1.029-2.058s.969-2.01,1.7-3.229a8.5,8.5,0,0,1,3.3-3.38c.78-.4,1.691-.662,2.6-1.04a5.913,5.913,0,0,0,1.325-.745,3.241,3.241,0,0,0,1.018-1.183c.473-.982.52-2.117.9-3.134a2.768,2.768,0,0,1,.959-1.3,5.285,5.285,0,0,1,1.56-.674,9.619,9.619,0,0,0,1.715-.617,3.134,3.134,0,0,0,1.349-1.338,14.254,14.254,0,0,0,.911-3.7,4.506,4.506,0,0,1,.674-1.749,2.366,2.366,0,0,1,1.549-.969c1.265-.237,2.614.237,4.034,0a3.442,3.442,0,0,0,1.869-.934,9.026,9.026,0,0,0,1.242-1.633,16.3,16.3,0,0,1,1.089-1.633,3.656,3.656,0,0,1,1.44-1.183,5.632,5.632,0,0,1,3.632.118,8.5,8.5,0,0,0,3.639.4,10.066,10.066,0,0,0,3.217-1.371,15.91,15.91,0,0,1,2.859-1.513,10.006,10.006,0,0,1,5.713,0,10.775,10.775,0,0,1,4.175,2.271,12.029,12.029,0,0,1,2.271,2.815,13.331,13.331,0,0,1,.946,2.094c.086.224.153.412.213.557s.071.189.086.189a1.283,1.283,0,0,0,0-.206l-.168-.56a12.463,12.463,0,0,0-.911-2.129,11.471,11.471,0,0,0-2.263-2.875,10.728,10.728,0,0,0-4.235-2.366,10.03,10.03,0,0,0-5.843,0,15.959,15.959,0,0,0-2.922,1.513,9.651,9.651,0,0,1-3.119,1.325,8.28,8.28,0,0,1-3.549-.4,11.829,11.829,0,0,0-1.869-.366,3.973,3.973,0,0,0-1.955.26,3.927,3.927,0,0,0-1.526,1.254,17.591,17.591,0,0,0-1.112,1.655,8.623,8.623,0,0,1-1.183,1.573,3.111,3.111,0,0,1-1.715.852c-1.313.189-2.661-.284-4.045,0a2.661,2.661,0,0,0-1.727,1.076,4.836,4.836,0,0,0-.72,1.869,13.957,13.957,0,0,1-.876,3.632,2.778,2.778,0,0,1-1.183,1.183,9.867,9.867,0,0,1-1.655.607,5.658,5.658,0,0,0-1.646.72,2.957,2.957,0,0,0-1.04,1.42c-.4,1.076-.437,2.2-.887,3.119a3.915,3.915,0,0,1-2.211,1.869c-.887.379-1.8.651-2.6,1.064a8.776,8.776,0,0,0-3.347,3.549c-.72,1.183-1.183,2.366-1.655,3.253l-.994,2.094c-.1.224-.189.4-.249.544a1.622,1.622,0,0,0-.206.13Z" transform="translate(-38.283 -93.596)" fill="#455a64"/>
        <path id="Path_90859" data-name="Path 90859" d="M206.972,123H206.8a1.076,1.076,0,0,0-.508.1,2.023,2.023,0,0,0-.994,1.679,4.875,4.875,0,0,0,.166,1.44,5.8,5.8,0,0,1,.213,1.668,3.715,3.715,0,0,1-.72,1.762c-.379.568-.876,1.183-1.265,1.81a2.733,2.733,0,0,0-.3,2.366c.284.828.866,1.526,1.183,2.366a3.553,3.553,0,0,1-.32,2.638c-.4.876-.958,1.715-1.349,2.686a4.483,4.483,0,0,0-.347,1.549,3.9,3.9,0,0,0,.331,1.6,19.1,19.1,0,0,0,1.762,2.791,4.333,4.333,0,0,1,.947,3.063,14.2,14.2,0,0,1-1.183,3.217,4.979,4.979,0,0,0-.4,1.762,4,4,0,0,0,.412,1.739,14.948,14.948,0,0,0,2.011,2.768,8,8,0,0,1,1.62,2.755,23.427,23.427,0,0,0,.926,3.017,3.407,3.407,0,0,0,.959,1.183,4.483,4.483,0,0,0,1.337.686,13.4,13.4,0,0,1,1.325.508,5.157,5.157,0,0,1,1.1.78,10.29,10.29,0,0,1,1.526,2.094c.426.72.816,1.44,1.266,2.079a6.54,6.54,0,0,0,3.292,2.543,6.944,6.944,0,0,0,3.134.366,6.316,6.316,0,0,0,1.928-.508,6.39,6.39,0,0,0,.617-.331,7.418,7.418,0,0,1-2.555.734,7.1,7.1,0,0,1-3.063-.412,6.423,6.423,0,0,1-3.182-2.507c-.426-.627-.816-1.338-1.242-2.079a10.382,10.382,0,0,0-1.549-2.152,5.077,5.077,0,0,0-1.183-.823,14.406,14.406,0,0,0-1.349-.52,4.425,4.425,0,0,1-1.266-.651,3.228,3.228,0,0,1-.876-1.183,25.4,25.4,0,0,1-.911-2.992,8.16,8.16,0,0,0-1.655-2.851,13.9,13.9,0,0,1-1.975-2.72,3.737,3.737,0,0,1-.379-1.608,4.873,4.873,0,0,1,.379-1.655,14.311,14.311,0,0,0,1.254-3.292,3.547,3.547,0,0,0-.206-1.739,6.91,6.91,0,0,0-.793-1.526,17.744,17.744,0,0,1-1.749-2.733,3.553,3.553,0,0,1-.309-1.478,3.892,3.892,0,0,1,.32-1.467c.366-.934.911-1.775,1.325-2.675a3.844,3.844,0,0,0,.32-2.815c-.309-.9-.887-1.6-1.183-2.366a2.519,2.519,0,0,1,.26-2.236c.379-.662.866-1.183,1.242-1.81a3.892,3.892,0,0,0,.733-1.852,5.916,5.916,0,0,0-.237-1.715,5.227,5.227,0,0,1-.206-1.4,2.045,2.045,0,0,1,.91-1.646,1.183,1.183,0,0,1,.627-.012Z" transform="translate(-37.326 -89.835)" fill="#455a64"/>
        <path id="Path_90860" data-name="Path 90860" d="M203.56,121.47v-.72l.249-2.07a32.809,32.809,0,0,1,.532-3.241,19.152,19.152,0,0,1,1.371-4.128,12.289,12.289,0,0,1,3.17-4.139,8.977,8.977,0,0,1,2.5-1.455,24.941,24.941,0,0,1,3.017-.793,8.54,8.54,0,0,0,3.063-1.277,13.6,13.6,0,0,0,2.507-2.366c.769-.887,1.5-1.81,2.366-2.65a9.7,9.7,0,0,1,3.04-2.079,17.577,17.577,0,0,1,6.978-1.313,44.949,44.949,0,0,1,6.688.437,34.2,34.2,0,0,1,10.8,3.292,23.988,23.988,0,0,1,6.173,4.459c.32.32.607.607.84.866l.568.674.347.412.13.13-.1-.153-.32-.426-.557-.7c-.224-.26-.508-.557-.816-.887a23.656,23.656,0,0,0-6.163-4.554,33.934,33.934,0,0,0-10.871-3.379,45.336,45.336,0,0,0-6.718-.45,17.422,17.422,0,0,0-7.1,1.338,10.124,10.124,0,0,0-3.028,2.117c-.866.866-1.6,1.8-2.366,2.675a13.825,13.825,0,0,1-2.449,2.366,8.775,8.775,0,0,1-2.984,1.183,24.709,24.709,0,0,0-3.028.8,9.186,9.186,0,0,0-2.567,1.513,12.565,12.565,0,0,0-3.206,4.246,18.808,18.808,0,0,0-1.337,4.175c-.26,1.265-.4,2.366-.5,3.265s-.153,1.608-.189,2.079v.544Z" transform="translate(-37.182 -94.959)" fill="#263238"/>
        <path id="Path_90861" data-name="Path 90861" d="M240.469,153.321a4.271,4.271,0,0,0-2.46-3.639,3.773,3.773,0,0,0-4.235.887,3.4,3.4,0,0,0-.237,4.072,3.857,3.857,0,0,0,1.62,1.455,4.733,4.733,0,0,0,2.778.309,3.217,3.217,0,0,0,2-1.076,2.968,2.968,0,0,0,.532-2Z" transform="translate(-31.844 -85.009)" fill="#fb8c8c"/>
        <path id="Path_90862" data-name="Path 90862" d="M256.982,157.457a24.723,24.723,0,0,1,3.844-6.932l.651-.3a16.461,16.461,0,0,1,2.851,6.079,5.594,5.594,0,0,1-2.366,5.914,4.435,4.435,0,0,1-3.039.39,3.146,3.146,0,0,1-1.964-1.254,4.377,4.377,0,0,1,.024-3.9Z" transform="translate(-27.614 -84.851)" fill="#e0e0e0"/>
        <path id="Path_90863" data-name="Path 90863" d="M258.294,112.633c8.659,6.021,9.888,8.788,11.332,19.324a22.581,22.581,0,0,1-2.507,14.371q-2.035-.71-4.151-1.313s4.342-10.326-.568-19.788c-5.583-10.751-17.742-11.4-17.742-11.4-1.679-2.271-2.543-4.034-4.825-5.144C239.842,108.694,250.676,107.357,258.294,112.633Z" transform="translate(-30.641 -92.472)" fill="#c7cad8"/>
        <path id="Path_90864" data-name="Path 90864" d="M217.715,116s-3.189,2.177-4.733,11.225c-2.686,15.2,4.471,23.952,4.471,23.952l3.9-30.824Z" transform="translate(-35.547 -91.109)" fill="#c7cad8"/>
        <path id="Path_90865" data-name="Path 90865" d="M250.721,114.8c-2.01-3.549-5-6.753-9.049-7a10.4,10.4,0,0,0-9.806,5.914,9.687,9.687,0,0,0-13.543,13.105,8.951,8.951,0,0,0-5.8,10.361c.331,1.3.969,2.507,1.387,3.773a5.546,5.546,0,0,1,.071,3.927,2.709,2.709,0,0,1-3.253,1.62,6.186,6.186,0,0,0,7.759,1.691l1.04-8.279s2.733-5.546,4.945-6.908,8.564.4,11.414-4.92c2.968-5.524.3-6.688,4.593-6.846S254,120.536,250.721,114.8Z" transform="translate(-35.879 -92.609)" fill="#263238"/>
        <path id="Path_90866" data-name="Path 90866" d="M250.9,114.848a7.915,7.915,0,0,1,.426.769,3.087,3.087,0,0,1,.13,2.507,4.956,4.956,0,0,1-3.292,2.366,24.166,24.166,0,0,1-5.373.9c-1.005.086-2.094.095-3.17.213a1.775,1.775,0,0,0-1.3.579,6.435,6.435,0,0,0-.412,1.633,14.314,14.314,0,0,1-1.183,3.631,8.008,8.008,0,0,1-2.484,3.292,9.465,9.465,0,0,1-4.093,1.6c-1.467.272-3,.3-4.447.607a3.407,3.407,0,0,0-1.8,1.1,14.812,14.812,0,0,0-1.44,1.82,37.557,37.557,0,0,0-2.46,4.2v-.1c-.32,2.638-.674,5.429-1.029,8.279v.189l-.166.095a6.54,6.54,0,0,1-8.279-1.786l-.816-1.1,1.265.52a2.167,2.167,0,0,0,2.282-.686,3.38,3.38,0,0,0,.769-2.59,17.256,17.256,0,0,0-1.431-4.542,8.682,8.682,0,0,1-.379-4.932,9.32,9.32,0,0,1,6.1-6.919l-.206.532a10.007,10.007,0,0,1,14-13.539l-.426.118a10.645,10.645,0,0,1,7.937-5.914,8.669,8.669,0,0,1,4.16.3,9.344,9.344,0,0,1,3.052,1.715,15.482,15.482,0,0,1,3.159,3.631c.3.473.508.828.639,1.089a1.863,1.863,0,0,1,.173.379,16.384,16.384,0,0,1-.958-1.371,16.419,16.419,0,0,0-3.217-3.478,8.492,8.492,0,0,0-6.943-1.81,10.207,10.207,0,0,0-7.476,5.665l-.142.3-.284-.173a9.735,9.735,0,0,0-10.906.627,9.592,9.592,0,0,0-2.152,12.045l.237.4-.45.142a8.578,8.578,0,0,0-5.571,6.387,7.96,7.96,0,0,0,.347,4.506,17.07,17.07,0,0,1,1.478,4.733,4.081,4.081,0,0,1-.969,3.159,2.933,2.933,0,0,1-3.119.876l.45-.579a5.784,5.784,0,0,0,7.263,1.584l-.189.284c.366-2.875.72-5.665,1.064-8.279v-.118A39.113,39.113,0,0,1,221.8,135.4a15.806,15.806,0,0,1,1.537-1.892,5.748,5.748,0,0,1,.958-.8,3.813,3.813,0,0,1,1.183-.473c1.584-.32,3.075-.331,4.5-.579a8.951,8.951,0,0,0,3.813-1.5,7.366,7.366,0,0,0,2.366-3.052,13.668,13.668,0,0,0,1.183-3.559,6.728,6.728,0,0,1,.5-1.8,2.176,2.176,0,0,1,1.786-.651c1.183-.118,2.188-.095,3.189-.173a24.6,24.6,0,0,0,5.311-.78,4.733,4.733,0,0,0,3.17-2.079,3.063,3.063,0,0,0,0-2.366,3.67,3.67,0,0,1-.39-.84Z" transform="translate(-36.061 -92.653)" fill="#455a64"/>
        <path id="Path_90867" data-name="Path 90867" d="M242.02,151.762a22.086,22.086,0,0,1-4.874.686,26.443,26.443,0,0,1-4.9.426,16.291,16.291,0,0,1,4.825-1.04,18.17,18.17,0,0,1,4.945-.071Z" transform="translate(-31.977 -84.597)" fill="#263238"/>
        <path id="Path_90868" data-name="Path 90868" d="M211.333,184.476l21.113-7.522h0a18.262,18.262,0,0,0,16.239,9.987c7.428-.059,12.361-4.483,15.98-10.775l3.454.926,27.642,7.866-3.14,41.878-3.656,39.648,10.267,43c-30.114,3.749-66.178,5.535-96.531,1.478l13.011-39.706-10.132-84.762Z" transform="translate(-37.391 -80.49)" fill="#ef5a5a"/>
        <path id="Path_90869" data-name="Path 90869" d="M213.328,183.8l-4.388,1.513s-7.547,4.92-17.979,25.631c-8.635,17.14-10.741,22.652-10.741,22.652l26.187,15.494,9.671-22.131Z" transform="translate(-41.351 -79.053)" fill="#ef5a5a"/>
        <path id="Path_90870" data-name="Path 90870" d="M280.921,183.19h.059c5.453,2.366,11.3,7.214,13.708,12.668l15.858,29.982L287.665,249,278.2,227.806Z" transform="translate(-23.753 -79.163)" fill="#ef5a5a"/>
        <path id="Path_90871" data-name="Path 90871" d="M280.377,202.09a.487.487,0,0,1,0,.153v.473c0,.437-.059,1.053-.118,1.82-.118,1.6-.284,3.868-.486,6.688-.437,5.632-1.112,13.413-1.852,22s-1.371,16.381-1.82,21.988c-.206,2.8-.366,5.074-.473,6.672q-.088,1.17-.142,1.82h0a16.105,16.105,0,0,1,.086-1.82c.086-1.584.213-3.868.39-6.688.354-5.642.934-13.437,1.668-22.036s1.44-16.346,1.928-22l.592-6.672c.071-.769.13-1.371.166-1.81l.059-.473a.573.573,0,0,1,.012-.118Z" transform="translate(-24.198 -75.776)" fill="#1c1818"/>
        <path id="Path_90872" data-name="Path 90872" d="M207.611,204.05v.13a.823.823,0,0,0,.059.366c.059.355.13.823.213,1.431.173,1.254.426,3.063.71,5.286.568,4.471,1.265,10.646,1.987,17.482s1.36,13.011,1.833,17.5c.237,2.223.426,4.022.568,5.3l.142,1.44v.379l-.059-.366a13.925,13.925,0,0,0-.189-1.44c-.173-1.242-.4-3.052-.662-5.286-.532-4.471-1.183-10.645-1.928-17.49s-1.387-13.011-1.892-17.49c-.26-2.212-.473-4.012-.617-5.286-.071-.617-.118-1.089-.166-1.44v-.38A1.026,1.026,0,0,1,207.611,204.05Z" transform="translate(-36.402 -75.413)" fill="#1c1818"/>
        <path id="Path_90873" data-name="Path 90873" d="M263.168,177.41a2.632,2.632,0,0,1-.13.461c-.095.309-.26.757-.486,1.313a19.718,19.718,0,0,1-2.6,4.424,20.109,20.109,0,0,1-5.748,4.967,19.717,19.717,0,0,1-18.023.651,19.966,19.966,0,0,1-6.092-4.542,19.4,19.4,0,0,1-2.968-4.21c-.272-.544-.461-.969-.579-1.265a2.691,2.691,0,0,1-.166-.461,3.176,3.176,0,0,1,.224.437c.13.284.347.71.617,1.183a20.379,20.379,0,0,0,2.968,4.128,19.8,19.8,0,0,0,6.056,4.435,19.564,19.564,0,0,0,17.743-.639,20.031,20.031,0,0,0,8.374-9.2c.249-.544.426-.982.532-1.277a3.645,3.645,0,0,1,.284-.4Z" transform="translate(-33.067 -80.161)" fill="#1c1818"/>
        <path id="Path_90874" data-name="Path 90874" d="M208.755,204.469c0,.059-2.826-1.727-6.209-3.986s-6.092-4.16-6.044-4.218,2.815,1.715,6.209,3.986S208.805,204.4,208.755,204.469Z" transform="translate(-38.405 -76.776)" fill="#fb8c8c"/>
        <path id="Path_90875" data-name="Path 90875" d="M289.036,192.24a56.115,56.115,0,0,1-2.91,5.062c-1.668,2.755-3.087,4.956-3.146,4.92a57.633,57.633,0,0,1,2.9-5.062,48.992,48.992,0,0,1,3.159-4.92Z" transform="translate(-22.853 -77.498)" fill="#fb8c8c"/>
        <path id="Path_90876" data-name="Path 90876" d="M289.5,220.178c0,.166-17.836.309-39.837.309s-39.825-.142-39.825-.309,17.825-.309,39.825-.309S289.5,220.023,289.5,220.178Z" transform="translate(-36.089 -72.531)" fill="#fb8c8c"/>
        <path id="Path_90877" data-name="Path 90877" d="M289.5,224.048c0,.166-17.836.309-39.837.309s-39.825-.142-39.825-.309,17.825-.309,39.825-.309S289.5,223.811,289.5,224.048Z" transform="translate(-36.089 -71.836)" fill="#fb8c8c"/>
        <path id="Path_90878" data-name="Path 90878" d="M297.255,352.34l18.167,35.084,22.387,23.654a4.057,4.057,0,0,1-.366,5.914h0a4.034,4.034,0,0,1-3.632.793c-8.066-2.188-37.365-10.918-38.488-12.7-1.8-2.839-22.047-36.1-22.047-36.1Z" transform="translate(-24.695 -48.887)" fill="#263238"/>
        <path id="Path_90879" data-name="Path 90879" d="M334.294,409.256l-43.759-14.573.8,1.478a6.326,6.326,0,0,0,3.17,2.768c3.62,1.4,13.7,5,36.113,11.178a4.08,4.08,0,0,0,3.738-.852Z" transform="translate(-21.56 -41.182)" fill="#455a64"/>
        <path id="Path_90880" data-name="Path 90880" d="M313.876,399.03c.249,0,0-2.263,1.56-4.364s3.655-2.709,3.553-2.947-.607-.142-1.478.189a6.482,6.482,0,0,0-3.986,5.659C313.544,398.494,313.769,399.042,313.876,399.03Z" transform="translate(-17.362 -41.718)" fill="#fff"/>
        <path id="Path_90881" data-name="Path 90881" d="M318.063,401.515c.249,0,.745-1.668,2.263-3.17s3.217-2.045,3.159-2.282-2.07-.059-3.773,1.668S317.838,401.528,318.063,401.515Z" transform="translate(-16.559 -40.926)" fill="#fff"/>
        <path id="Path_90882" data-name="Path 90882" d="M307.177,396.421c.26.071,1.005-2.6,3.159-5.133s4.612-3.785,4.5-4.022-2.886.72-5.157,3.466S306.977,396.421,307.177,396.421Z" transform="translate(-18.514 -42.504)" fill="#fff"/>
        <path id="Path_90883" data-name="Path 90883" d="M301.753,387.171c.206.153,1.679-1.691,4.128-3.146s4.733-1.94,4.733-2.188-2.543-.153-5.157,1.44S301.552,387.064,301.753,387.171Z" transform="translate(-19.487 -43.483)" fill="#fff"/>
        <path id="Path_90884" data-name="Path 90884" d="M243.024,329.318s-5.373,18.4-4.258,37.649,2.626,108.475,2.058,110,28.66,5.914,28.66,5.914,7.408-44.792,8.894-56.278,4.8-14.063,4.435-45.159,7.8-24.59,13.708-34.878,8.137-19.906,4.8-37.685-12.574-22.249-12.574-22.249l-36.667,1.852Z" transform="translate(-30.908 -61.198)" fill="#263238"/>
        <path id="Path_90885" data-name="Path 90885" d="M207.571,290.442s36.855-18.132,47.384-18.132,18.132,4.105,25.736,18.132,41.542,95.937,41.542,95.937l-25.75,15.207s-32.754-48.553-39.766-60.252l-7.026-11.7s1.183,16.381-6.434,22.223-27.488-.579-35.686-9.363-15.2-16.962-12.278-31.533S207.571,290.442,207.571,290.442Z" transform="translate(-38.887 -63.341)" fill="#263238"/>
        <path id="Path_90886" data-name="Path 90886" d="M207.58,290.462l-.461.355c-.309.237-.757.591-1.313,1.1a29.026,29.026,0,0,0-4.424,4.968,34.854,34.854,0,0,0-4.733,9.557,34.171,34.171,0,0,0-1.633,14.2,26.023,26.023,0,0,0,2.366,8.1,39.9,39.9,0,0,0,5.122,7.747c1.018,1.266,2.117,2.5,3.253,3.749q1.685,1.923,3.556,3.671a38.564,38.564,0,0,0,9.071,5.784,45.91,45.91,0,0,0,10.882,3.553,29.2,29.2,0,0,0,5.914.568,15.459,15.459,0,0,0,5.914-1.089,7.624,7.624,0,0,0,2.543-1.679,6.834,6.834,0,0,0,1.127-1.017,9.465,9.465,0,0,0,.926-1.254,19.519,19.519,0,0,0,2.484-5.914,44.72,44.72,0,0,0,1.183-13.176v-1.1l.568.934c3.38,5.546,6.731,11.351,10.433,17.115s7.57,11.663,11.532,17.648c7.937,11.981,16.264,24.413,24.839,37.152l-.412-.095,4.246-2.507,21.49-12.691-.118.379c-10.22-24.59-19.954-47.746-28.99-68.6-2.263-5.2-4.471-10.267-6.688-15.14s-4.342-9.628-6.79-13.98a50.852,50.852,0,0,0-4.072-6.115,30.091,30.091,0,0,0-4.874-5.074,22.131,22.131,0,0,0-5.784-3.406,23.658,23.658,0,0,0-6.257-1.5l-1.56-.13H255.37a13.013,13.013,0,0,0-1.526.086,12.813,12.813,0,0,0-1.491.173c-.969.213-1.955.366-2.9.628l-2.778.769q-5.447,1.775-10.114,3.553c-6.245,2.436-11.509,4.733-15.8,6.647s-7.582,3.442-9.806,4.483l-2.531,1.183c-.568.272-.876.39-.876.39l.852-.437,2.507-1.183c2.212-1.064,5.489-2.638,9.758-4.577s9.546-4.281,15.778-6.742c3.111-1.183,6.494-2.46,10.125-3.62l2.8-.793c.947-.26,1.928-.412,2.922-.639a12.8,12.8,0,0,1,1.526-.173,11.24,11.24,0,0,1,1.549-.095h1.573l1.584.13a24.522,24.522,0,0,1,6.363,1.5,22.473,22.473,0,0,1,5.914,3.454,30.092,30.092,0,0,1,4.956,5.144,49,49,0,0,1,4.115,6.163c2.485,4.377,4.625,9.12,6.846,14s4.435,9.936,6.718,15.139c9.06,20.818,18.819,43.965,29.038,68.6l.1.249-.224.13-21.5,12.7-4.235,2.507-.249.153-.166-.249c-8.587-12.738-16.913-25.17-24.838-37.163-3.962-6-7.83-11.832-11.532-17.659s-7.038-11.591-10.409-17.15l.52-.166a44.792,44.792,0,0,1-1.267,13.366,20.236,20.236,0,0,1-2.543,6.021,10.645,10.645,0,0,1-.969,1.3,7.1,7.1,0,0,1-1.127,1.183,8.279,8.279,0,0,1-2.686,1.762,16.076,16.076,0,0,1-6.138,1.127,30.757,30.757,0,0,1-6.032-.592,46.754,46.754,0,0,1-11-3.639,39.03,39.03,0,0,1-9.167-5.914,50.53,50.53,0,0,1-3.549-3.727c-1.183-1.254-2.236-2.5-3.253-3.761a40,40,0,0,1-5.144-7.854,26.425,26.425,0,0,1-2.366-8.221,34.383,34.383,0,0,1,1.715-14.336,34.893,34.893,0,0,1,4.852-9.568,28.5,28.5,0,0,1,4.506-4.945A13.488,13.488,0,0,1,207.58,290.462Z" transform="translate(-38.896 -63.362)" fill="#455a64"/>
        <path id="Path_90887" data-name="Path 90887" d="M238.5,294.59a10.3,10.3,0,0,0-2.543,4.013,12.466,12.466,0,0,0-.508,5.122,34.117,34.117,0,0,0,1.337,6.269,89,89,0,0,0,4,11.009c.568,1.277,1.064,2.366,1.467,3.253a5.4,5.4,0,0,1,.5,1.183,4.731,4.731,0,0,1-.71-1.1c-.426-.734-.994-1.81-1.656-3.17a71.563,71.563,0,0,1-4.19-11.024,31.753,31.753,0,0,1-1.313-6.4,12.609,12.609,0,0,1,.662-5.311,8.705,8.705,0,0,1,1.906-3.063,3.417,3.417,0,0,1,1.052-.78Z" transform="translate(-31.511 -59.162)" fill="#455a64"/>
        <path id="Path_90888" data-name="Path 90888" d="M270.479,422l-1.749,39.316,7.582,31.5a4.034,4.034,0,0,1-3.241,4.92h0a4.013,4.013,0,0,1-3.548-1.112c-5.914-5.914-26.814-27.961-26.909-30.056-.142-3.348-1.112-42.08-1.112-42.08Z" transform="translate(-30.347 -36.452)" fill="#263238"/>
        <path id="Path_90889" data-name="Path 90889" d="M272.865,491.362l-30.575-34.3v1.668a6.293,6.293,0,0,0,1.348,3.962c2.436,2.992,9.344,11.106,25.618,27.556a4.033,4.033,0,0,0,3.639,1.112Z" transform="translate(-30.199 -30.043)" fill="#455a64"/>
        <path id="Path_90890" data-name="Path 90890" d="M260.856,472.037c.213.118,1.183-1.928,3.553-2.984s4.5-.532,4.554-.769-.461-.412-1.371-.568a6.4,6.4,0,0,0-6.245,2.91C260.832,471.422,260.761,472,260.856,472.037Z" transform="translate(-26.839 -28.105)" fill="#fff"/>
        <path id="Path_90891" data-name="Path 90891" d="M263.122,476.284c.189.166,1.478-1.076,3.548-1.62s3.785-.166,3.856-.412-1.762-1.076-4.08-.412S262.98,476.173,263.122,476.284Z" transform="translate(-26.427 -27.021)" fill="#fff"/>
        <path id="Path_90892" data-name="Path 90892" d="M256.562,466.249c.174.189,2.152-1.749,5.264-2.859s5.855-.982,5.914-1.242-2.839-.816-6.163.426S256.373,466.133,256.562,466.249Z" transform="translate(-27.611 -29.179)" fill="#fff"/>
        <path id="Path_90893" data-name="Path 90893" d="M256.17,455.643c.095.237,2.294-.628,5.122-.662s5.062.686,5.144.45-2.117-1.4-5.169-1.313S256.053,455.458,256.17,455.643Z" transform="translate(-27.679 -30.582)" fill="#fff"/>
        <path id="Path_90894" data-name="Path 90894" d="M421.878,271.74l30.3,224.568h-8.066L405.65,272.286Z" transform="translate(-0.904 -63.92)" fill="#0c0b0b"/>
        <path id="Path_90895" data-name="Path 90895" d="M405.65,270.29l10.361,62.389h14.147L421.877,272Z" transform="translate(-0.904 -63.567)" fill="#0c0b0b"/>
        <path id="Path_90896" data-name="Path 90896" d="M93.5,268.54,62.49,496.891h8.079l39.162-227.818Z" transform="translate(-62.49 -64.505)" fill="#0c0b0b"/>
        <path id="Path_90897" data-name="Path 90897" d="M106.218,267.08,95.844,329.469H81.71L89.989,268.8Z" transform="translate(-58.977 -64.143)" fill="#0c0b0b"/>
        <rect id="Rectangle_148564" data-name="Rectangle 148564" width="424.89" height="12.49" transform="translate(10.48 196.05)" fill="#453f3f"/>
      </g>
      <g id="freepik--Plant--inject-2" transform="translate(66.44 355.39)">
        <path id="Path_90706" data-name="Path 90706" d="M138.94,457.285s-6.364-43.7-5.832-69.214,0-54.082,0-54.082h2.922s-1.98,50.525.177,80.985,7.853,42.337,7.853,42.337h-5.094" transform="translate(-76.487 -280.147)" fill="#263238"/>
        <path id="Path_90707" data-name="Path 90707" d="M159.123,299.175a7.676,7.676,0,0,0-2.732-3.9c-1.857-1.175-4.3-.682-6.378,0-8.849,3.141-16.7,19.652-20.295,28.338l11.772,39.606C162.77,343.588,166.444,317.749,159.123,299.175Z" transform="translate(-77.715 -294.565)" fill="#455a64"/>
        <path id="Path_90708" data-name="Path 90708" d="M152.582,296.25a1.937,1.937,0,0,1-.177.519l-.574,1.448c-.5,1.243-1.228,3.06-2.1,5.312-1.734,4.493-3.933,10.789-5.914,17.877a177.625,177.625,0,0,0-4.1,18.382c-.41,2.363-.723,4.3-.929,5.627-.109.628-.191,1.133-.259,1.544a2.13,2.13,0,0,1-.109.519v-.532c0-.355.1-.929.164-1.556.15-1.366.41-3.278.792-5.668a167.655,167.655,0,0,1,4.015-18.437,170.184,170.184,0,0,1,6.059-17.877c.9-2.24,1.68-4.1,2.257-5.258l.656-1.366a2.582,2.582,0,0,1,.219-.532Z" transform="translate(-74.534 -293.948)" fill="#263238"/>
        <path id="Path_90709" data-name="Path 90709" d="M139.418,367.329A35.919,35.919,0,0,1,121.282,337.2c-.423-8.791,2.281-17.426,5.34-25.689a3.318,3.318,0,0,1,1.257-1.857,3.2,3.2,0,0,1,3,.464c8,4.562,12.864,13.261,15.443,22.111a44.631,44.631,0,0,1,1.816,18.175,30.25,30.25,0,0,1-8.727,16.921" transform="translate(-80.816 -289.112)" fill="#455a64"/>
        <path id="Path_90710" data-name="Path 90710" d="M136.642,365.619a2.637,2.637,0,0,1,0-.532v-1.516c0-1.366-.068-3.223-.177-5.583a151.393,151.393,0,0,0-2.035-18.31c-1.228-7.087-2.732-13.452-3.81-18.041-.532-2.257-.984-4.1-1.366-5.465-.137-.6-.259-1.093-.341-1.474a1.736,1.736,0,0,1-.082-.532,3.136,3.136,0,0,1,.177.5l.423,1.461c.369,1.27.86,3.114,1.461,5.465,1.175,4.576,2.732,10.929,3.948,18.041a136.82,136.82,0,0,1,1.914,18.38c0,2.363,0,4.277,0,5.6v1.53A3.1,3.1,0,0,1,136.642,365.619Z" transform="translate(-78.04 -287.398)" fill="#263238"/>
        <g id="Group_292833" data-name="Group 292833" transform="translate(40.422 20.361)" opacity="0.3">
          <path id="Path_90711" data-name="Path 90711" d="M139.418,367.329A35.919,35.919,0,0,1,121.282,337.2c-.423-8.791,2.281-17.426,5.34-25.689a3.318,3.318,0,0,1,1.257-1.857,3.2,3.2,0,0,1,3,.464c8,4.562,12.864,13.261,15.443,22.111a44.631,44.631,0,0,1,1.816,18.175,30.25,30.25,0,0,1-8.727,16.921" transform="translate(-121.238 -309.471)"/>
        </g>
        <path id="Path_90712" data-name="Path 90712" d="M143.66,401.109c10.843,2.376,19.776,10.038,30.251,13.752,6.924,2.472,14.764,3.332,20.295,8.2-1.366-3.345-4.48-5.583-7.539-7.5a135.5,135.5,0,0,0-27.423-13.084c-4.917-1.707-10.27-3.128-15.282-1.721" transform="translate(-72.617 -255.941)" fill="#455a64"/>
        <path id="Path_90713" data-name="Path 90713" d="M143.974,400.77l.273-.1a7.041,7.041,0,0,0,.832-.219,15.491,15.491,0,0,1,3.25-.356,34.433,34.433,0,0,1,11.761,2.485,132.168,132.168,0,0,1,16.394,6.965c2.99,1.53,6.091,3.237,9.218,5.148a41.293,41.293,0,0,1,4.644,3.128,13.66,13.66,0,0,1,3.756,4.438c.109.238.219.475.314.713l.5,1.106-.942-.805a26.766,26.766,0,0,0-9.778-5.013c-3.427-1.093-6.828-1.885-9.969-2.99a61.3,61.3,0,0,1-8.617-3.851c-2.613-1.366-4.989-2.732-7.183-3.948a76.362,76.362,0,0,0-10.666-5.052c-1.366-.451-2.35-.778-3.072-.956l-.805-.238-.259-.1h.273l.82.177c.723.15,1.775.45,3.114.874a68.387,68.387,0,0,1,10.776,4.917c2.212,1.188,4.6,2.527,7.211,3.879a62.11,62.11,0,0,0,8.577,3.784c3.114,1.079,6.515,1.857,9.969,2.95a27.56,27.56,0,0,1,9.979,5.108l-.437.3-.3-.669a12.879,12.879,0,0,0-3.6-4.247,41.46,41.46,0,0,0-4.576-3.1c-3.114-1.911-6.186-3.618-9.178-5.148a136.643,136.643,0,0,0-16.394-7.061,35.767,35.767,0,0,0-11.642-2.636,18.141,18.141,0,0,0-3.237.259,5.527,5.527,0,0,1-1.016.257Z" transform="translate(-72.631 -255.971)" fill="#263238"/>
        <path id="Path_90714" data-name="Path 90714" d="M143.261,411.781c-13.589-.219-27.9-11.8-41.421-12.483,14.148-4.576,34.418-.832,41.421,12.483" transform="translate(-87.91 -256.946)" fill="#455a64"/>
        <path id="Path_90715" data-name="Path 90715" d="M136.06,388.491a44.3,44.3,0,0,1,21.769-1.461,131.675,131.675,0,0,1,21.211,5.777c-.7-4.726-4.5-8.2-8.1-11.4a56.164,56.164,0,0,0-8.5-6.541,18.832,18.832,0,0,0-10.216-2.882,16.114,16.114,0,0,0-11.285,5.681,18.71,18.71,0,0,0-4.821,10.858" transform="translate(-75.396 -266.254)" fill="#455a64"/>
        <path id="Path_90716" data-name="Path 90716" d="M136.075,388.566v-.273a3.207,3.207,0,0,1,.082-.792,18.307,18.307,0,0,1,.656-3,19.719,19.719,0,0,1,6.338-9.191,15.473,15.473,0,0,1,15.918-2.281,31.276,31.276,0,0,1,8.412,5.163c1.366,1.079,2.649,2.226,3.974,3.387a47.525,47.525,0,0,1,3.879,3.742,14.667,14.667,0,0,1,3.933,7.5v.423l-.409-.137a167.913,167.913,0,0,0-16.662-4.931,59.267,59.267,0,0,0-13.793-1.583,41.131,41.131,0,0,0-9.147,1.093c-1.051.246-1.857.475-2.4.656l-.614.177h-.219l.191-.1.614-.238a22.2,22.2,0,0,1,2.39-.738,38.652,38.652,0,0,1,9.191-1.27,58.724,58.724,0,0,1,13.889,1.474,162.658,162.658,0,0,1,16.8,4.917l-.356.287a14,14,0,0,0-3.81-7.2,44.359,44.359,0,0,0-3.824-3.7c-1.366-1.161-2.635-2.308-3.947-3.387a31.029,31.029,0,0,0-8.2-5.108,15.108,15.108,0,0,0-15.514,2.117,19.908,19.908,0,0,0-4.316,4.7,17.906,17.906,0,0,0-2.117,4.288,20.17,20.17,0,0,0-.752,2.95C136.143,388.2,136.089,388.566,136.075,388.566Z" transform="translate(-75.411 -266.329)" fill="#263238"/>
        <path id="Path_90717" data-name="Path 90717" d="M124.416,374.815c-8.564-7.3-21.523-6.582-32.776-6.338a266.649,266.649,0,0,1,50.8,31.653C142.911,392.186,135.222,384.048,124.416,374.815Z" transform="translate(-91.64 -267.587)" fill="#455a64"/>
        <g id="Group_292834" data-name="Group 292834" transform="translate(0 100.749)" opacity="0.3">
          <path id="Path_90718" data-name="Path 90718" d="M124.416,374.815c-8.564-7.3-21.523-6.582-32.776-6.338a266.649,266.649,0,0,1,50.8,31.653C142.911,392.186,135.222,384.048,124.416,374.815Z" transform="translate(-91.64 -368.336)"/>
        </g>
        <path id="Path_90719" data-name="Path 90719" d="M138.882,375.1a95.372,95.372,0,0,1,13.165-7.648c4.493-2.049,8.7-5.3,13.042-7.662,5.64-3.046,10.53-7.293,15.708-11.075s10.858-7.211,17.194-8.2a33.787,33.787,0,0,0-15.651.9,101.074,101.074,0,0,0-14.722,5.737c-6.679,3-13.465,6.078-18.914,10.929s-10.393,9.7-9.819,16.987" transform="translate(-74.382 -277.951)" fill="#455a64"/>
        <path id="Path_90720" data-name="Path 90720" d="M138.871,375.167v-1.449a13.451,13.451,0,0,1,.682-4.1,17.938,17.938,0,0,1,3.277-5.709,56.12,56.12,0,0,1,6.186-6.186,48.343,48.343,0,0,1,8.754-5.968c3.345-1.829,7.047-3.509,10.929-5.258a99.606,99.606,0,0,1,12.5-4.931,37.3,37.3,0,0,1,14.327-1.639c.887.1,1.762.246,2.581.4l1.516.3-1.53.238a34.51,34.51,0,0,0-12.734,5.184c-3.81,2.376-7.183,5.094-10.475,7.593a73.745,73.745,0,0,1-9.751,6.5c-3.2,1.747-6,3.7-8.672,5.285-1.366.792-2.649,1.5-3.92,2.1s-2.458,1.133-3.551,1.707c-2.185,1.148-4,2.226-5.465,3.114l-3.387,2.117-.874.546-.314.177.287-.219.847-.6c.752-.5,1.871-1.257,3.332-2.185s3.263-2.035,5.465-3.207,4.793-2.212,7.4-3.879,5.465-3.551,8.672-5.34a73.621,73.621,0,0,0,9.656-6.515c3.278-2.5,6.664-5.227,10.488-7.648a34.906,34.906,0,0,1,12.931-5.267v.532c-.792-.15-1.652-.3-2.54-.383a36.47,36.47,0,0,0-14.094,1.6,102.776,102.776,0,0,0-12.456,4.871c-3.892,1.747-7.6,3.4-10.929,5.2a48.174,48.174,0,0,0-8.714,5.859,57.354,57.354,0,0,0-6.2,6.091,18.246,18.246,0,0,0-3.319,5.583,16.171,16.171,0,0,0-.91,5.474Z" transform="translate(-74.369 -278.017)" fill="#263238"/>
        <path id="Path_90721" data-name="Path 90721" d="M176.669,410.677a1.774,1.774,0,0,1-.437-.191l-1.188-.614c-1.011-.546-2.485-1.366-4.343-2.281-.916-.475-1.926-.984-3.032-1.5s-2.267-1.079-3.523-1.625a52.206,52.206,0,0,0-8.371-2.908,17.864,17.864,0,0,0-8.714-.219,22.5,22.5,0,0,0-3.683,1.106,18,18,0,0,0-2.99,1.53,19.336,19.336,0,0,0-3.742,3.089c-.792.847-1.175,1.366-1.2,1.366a1.367,1.367,0,0,1,.246-.4,10.378,10.378,0,0,1,.82-1.069,17.224,17.224,0,0,1,3.7-3.25,17.761,17.761,0,0,1,3-1.625,23.756,23.756,0,0,1,3.756-1.161,18.218,18.218,0,0,1,8.932.177,50.213,50.213,0,0,1,8.426,2.977c1.257.561,2.445,1.106,3.523,1.663s2.117,1.069,3.019,1.57c1.829.969,3.278,1.816,4.277,2.417l1.148.7a2,2,0,0,1,.383.246Z" transform="translate(-75.622 -255.842)" fill="#263238"/>
        <path id="Path_90722" data-name="Path 90722" d="M124.75,403a2.265,2.265,0,0,1,.847.246,18.189,18.189,0,0,1,2.212.956,26.671,26.671,0,0,1,11.348,10.929,18.438,18.438,0,0,1,1.051,2.172,3.112,3.112,0,0,1,.288.846c-.082,0-.587-1.119-1.625-2.84a30.046,30.046,0,0,0-11.226-10.789C125.879,403.546,124.709,403.082,124.75,403Z" transform="translate(-79.531 -254.91)" fill="#263238"/>
        <path id="Path_90723" data-name="Path 90723" d="M102.73,372.58a2.593,2.593,0,0,1,.587.177l1.625.574,2.567.956c1.011.368,2.09.916,3.332,1.461A78.088,78.088,0,0,1,128.6,387.015a88.011,88.011,0,0,1,8.2,8.2,93.609,93.609,0,0,1,5.859,7.416c1.544,2.2,2.732,4.1,3.536,5.3l.929,1.461a2.919,2.919,0,0,1,.3.519,2.325,2.325,0,0,1-.383-.465c-.246-.314-.587-.792-1.011-1.366-.86-1.243-2.077-3.046-3.66-5.2s-3.564-4.67-5.9-7.32a92.746,92.746,0,0,0-8.2-8.057,83.47,83.47,0,0,0-17.522-11.335c-1.215-.546-2.294-1.119-3.278-1.516l-2.54-1.024-1.6-.669a3.281,3.281,0,0,1-.6-.369Z" transform="translate(-87.584 -266.035)" fill="#263238"/>
        <path id="Path_90724" data-name="Path 90724" d="M156.942,378.743a4.1,4.1,0,0,1-1.093-.137l-1.243-.238a15.3,15.3,0,0,0-1.663-.15,16.8,16.8,0,0,0-13.589,4.981,18.911,18.911,0,0,0-2.732,3.387,27.893,27.893,0,0,0-1.871,3.564,4.159,4.159,0,0,1,.273-1.069,15.786,15.786,0,0,1,1.3-2.732,18.964,18.964,0,0,1,2.732-3.51,16.839,16.839,0,0,1,4.343-3.263,16.594,16.594,0,0,1,9.559-1.747,15.589,15.589,0,0,1,1.68.238l1.243.314a6.037,6.037,0,0,1,1.069.356Z" transform="translate(-75.874 -264.154)" fill="#263238"/>
        <path id="Path_90725" data-name="Path 90725" d="M170.776,347.45a3.828,3.828,0,0,1-.519.314l-1.516.82c-1.366.713-3.207,1.762-5.465,3.128s-5,3.06-7.88,5.121a65.56,65.56,0,0,0-8.781,7.365,22.041,22.041,0,0,0-3.592,4.658c-.9,1.707-1.747,3.359-2.527,4.943a92.055,92.055,0,0,0-3.864,8.553,54.3,54.3,0,0,0-1.829,6.05c-.356,1.461-.475,2.281-.519,2.267a2.86,2.86,0,0,1,0-.6,10.2,10.2,0,0,1,.273-1.694,45.209,45.209,0,0,1,1.707-6.132,83.759,83.759,0,0,1,3.683-8.672c.778-1.6,1.625-3.263,2.514-4.971a22.142,22.142,0,0,1,3.66-4.779,63.674,63.674,0,0,1,8.886-7.389c2.9-2.048,5.627-3.715,7.948-5.052s4.261-2.336,5.613-2.99l1.557-.738a2.871,2.871,0,0,1,.651-.2Z" transform="translate(-76.051 -275.224)" fill="#263238"/>
        <path id="Path_90726" data-name="Path 90726" d="M135.532,385.149a4.66,4.66,0,0,1-.273-1.148c-.164-.847-.356-1.9-.6-3.142a86.674,86.674,0,0,0-2.567-10.206,89.852,89.852,0,0,0-3.879-9.778c-.532-1.148-.969-2.13-1.366-2.908a5.229,5.229,0,0,1-.437-1.093,5.946,5.946,0,0,1,.6,1.011c.369.669.874,1.639,1.474,2.851a66.919,66.919,0,0,1,6.473,20.062c.219,1.366.369,2.417.45,3.168a6.224,6.224,0,0,1,.125,1.182Z" transform="translate(-78.925 -271.777)" fill="#263238"/>
        <path id="Path_90727" data-name="Path 90727" d="M142.33,365.42a36.874,36.874,0,0,0-4.425-14.667,48.482,48.482,0,0,0-32.776-24.487l30.4,45.3,3.92,8.085A23.212,23.212,0,0,0,142.33,365.42Z" transform="translate(-86.706 -282.97)" fill="#455a64"/>
        <rect id="Rectangle_148553" data-name="Rectangle 148553" width="70.661" height="12.523" transform="translate(28.543 171.715)" fill="#f59c9c"/>
        <path id="Path_90728" data-name="Path 90728" d="M116.41,427.65l9.559,46.365h39.22l11.319-46.365Z" transform="translate(-82.581 -245.897)" fill="#f59c9c"/>
        <path id="Path_90729" data-name="Path 90729" d="M183.327,429.546c0,.15-15.937.259-35.6.259s-35.6-.109-35.6-.259,15.937-.246,35.6-.246S183.327,429.409,183.327,429.546Z" transform="translate(-84.151 -245.293)" fill="#263238"/>
      </g>
      <path id="Path_90903" data-name="Path 90903" d="M351.546,450.151c-1.706-1.473-5.519-6.113-2.574-11.515,1.069-1.951,3.364-2.925,5.441-3.832a22.739,22.739,0,0,0,5.958-3.089c3.237-2.749,4.134-7.321,6.279-11,2.466-4.212,7.059-7.365,11.924-7.147,5.567.253,10.206,4.8,12.314,9.979s2.174,10.94,2.213,16.574c0,3.089-.107,6.581-2.376,8.672-2.1,1.949-5.254,1.949-8.092,1.861l-30.411-.927" transform="translate(99.1 126.257)" fill="#c7cad8"/>
      <path id="Path_90904" data-name="Path 90904" d="M409.452,365.31H329.311l14.445,86.114A9.622,9.622,0,0,0,350.6,459.1l.283.078c.238.059.469.137.713.187a11.134,11.134,0,0,0,1.632.187v.078l.391-.059h35.742a10.067,10.067,0,0,0,1.955-.2,9.676,9.676,0,0,0,8.112-8.415l6.959-59.345.314-2.356h0l2.756-23.456Zm-15.13,54.928h-8.229l.832-24.991h9.52Zm2.933-24.991h7.877L402.2,420.238h-7.075Zm-23.5,52.695-.5-21.711H385.1l-.713,21.711Zm-12.806-21.711h11.512l.5,21.711H362.629Zm.89,21.711h-9.656l-3.4-21.711h11.371Zm-1.359-27.709-1.954-24.989h13.206l.576,24.991Zm12.637,0-.576-24.991h13.592l-.832,24.991Zm-.713-30.981-.537-23.143H387.1l-.772,23.143Zm-.8,0H358.064l-1.8-23.143H371.03Zm-14.328,0H342.959c-.508-3.2-.978-6.226-1.426-8.943-1.5-9.363-2.052-12.882-2.365-14.2h16.308Zm.46,5.991,1.955,24.991H347.83c-.391-2.531-.8-5.091-1.2-7.662L343.9,395.242Zm-10.706,24.991h-7.749l-4.193-24.991h7.995c1.227,7.732,2.586,16.322,3.945,24.992Zm.978,6c1.188,7.516,2.345,14.924,3.4,21.711h-7.428l-3.648-21.707Zm37.209,21.711.723-21.711h7.918L392,447.947Zm1.955-58.684.763-23.143h11.048l-1.945,23.141Zm-48.734-23.148c.322,1.671,1.782,10.751,3.743,23.143h-8.044l-3.909-23.143Zm60.6,81.827h-6.2l1.847-21.711h6.89Zm6.841-58.684h-8.064l1.955-23.143h8.791Z" transform="translate(100.214 127.347)" fill="#453f3f"/>
    </g>
  </g>
</svg>
