<svg width="431" height="414" viewBox="0 0 431 414" fill="none" xmlns="http://www.w3.org/2000/svg">
<g clip-path="url(#clip0)">
<path d="M7.3291 191.886L73.8202 184.836L66.5633 120.25L0 126.657L0.9048 131.668L2.8927 130.963C4.2066 130.899 4.7961 131.744 4.9801 133.046C4.9841 133.075 4.9877 133.103 4.9909 133.132C5.1394 134.449 4.8331 135.681 3.5371 135.959L1.0281 135.807L1.5387 140.351C1.5387 140.351 5.9545 139.338 6.1581 142.151C6.1581 142.151 5.9655 144.753 2.0008 144.463L2.4266 148.253C2.4266 148.253 6.8367 147.048 7.0823 149.96C7.2907 152.432 4.7245 152.614 2.9248 152.688L3.3741 156.686C3.3741 156.686 7.7647 155.783 7.7031 158.764C7.6415 161.745 3.8801 161.189 3.8801 161.189L4.4521 166.28C4.4521 166.28 8.5108 164.5 8.8518 167.535C9.1928 170.57 5.9268 170.346 4.8817 170.104L5.3166 173.974C5.3166 173.974 9.4579 172.202 9.6509 176.1C9.7957 179.025 5.7501 177.832 5.7501 177.832L6.3551 183.217C6.3551 183.217 10.4191 181.484 10.7453 184.386C10.9773 186.451 8.4871 187.438 6.7181 186.447L7.3291 191.886Z" fill="white"/>
<path d="M57.2365 115.551L17.374 117L17.7708 127.912L57.6333 126.462L57.2365 115.551Z" fill="#E0E0E0"/>
<path d="M58.4081 137.233C57.8691 137.346 57.3217 137.414 56.7715 137.436C55.625 137.528 54.1174 137.649 52.2965 137.796C48.5164 138.077 43.2923 138.43 37.5205 138.787C31.7466 139.145 26.5184 139.439 22.7325 139.627C20.9074 139.706 19.3965 139.772 18.2475 139.821C17.6989 139.867 17.1473 139.867 16.5986 139.822C17.1376 139.709 17.6849 139.642 18.235 139.619C19.3813 139.527 20.8888 139.406 22.7097 139.259C26.4898 138.978 31.7145 138.625 37.4883 138.268C43.2601 137.91 48.4878 137.616 52.2737 137.428C54.0989 137.349 55.61 137.284 56.759 137.234C57.3078 137.188 57.8594 137.188 58.4081 137.233Z" fill="#E0E0E0"/>
<path d="M59.999 145.331C59.46 145.443 58.9126 145.511 58.3624 145.534C57.2159 145.626 55.7083 145.747 53.8874 145.894C50.1073 146.175 44.8832 146.528 39.1114 146.885C33.3375 147.243 28.1093 147.537 24.3234 147.724C22.4983 147.804 20.9874 147.869 19.8384 147.919C19.2897 147.965 18.7382 147.965 18.1895 147.92C18.7284 147.807 19.2757 147.739 19.8259 147.717C20.9722 147.625 22.4797 147.503 24.3006 147.357C28.0807 147.075 33.3054 146.723 39.0792 146.365C44.851 146.008 50.0787 145.713 53.8646 145.526C55.6898 145.447 57.2009 145.381 58.3499 145.331C58.8986 145.286 59.4502 145.285 59.999 145.331Z" fill="#E0E0E0"/>
<path d="M60.5772 153.647C60.0381 153.76 59.4907 153.828 58.9405 153.85C57.794 153.942 56.2864 154.064 54.4655 154.21C50.6854 154.491 45.4613 154.844 39.6895 155.201C33.9156 155.559 28.6874 155.854 24.9015 156.041C23.0764 156.12 21.5655 156.186 20.4165 156.236C19.8678 156.281 19.3163 156.281 18.7676 156.236C19.3065 156.123 19.8539 156.056 20.404 156.033C21.5503 155.941 23.0578 155.82 24.8787 155.673C28.6588 155.392 33.8835 155.039 39.6573 154.682C45.4291 154.324 50.6568 154.03 54.4428 153.842C56.2679 153.763 57.779 153.698 58.928 153.648C59.4768 153.602 60.0284 153.602 60.5772 153.647Z" fill="#E0E0E0"/>
<path d="M61.5893 161.96C61.0503 162.072 60.5029 162.14 59.9527 162.162C58.8062 162.255 57.2986 162.376 55.4777 162.523C51.6976 162.804 46.4735 163.157 40.7017 163.514C34.9279 163.872 29.6996 164.166 25.9137 164.353C24.0886 164.433 22.5777 164.498 21.4287 164.548C20.88 164.594 20.3285 164.594 19.7798 164.549C20.3187 164.436 20.8661 164.368 21.4162 164.346C22.5625 164.254 24.07 164.132 25.8909 163.986C29.671 163.704 34.8957 163.352 40.6695 162.994C46.4413 162.637 51.6691 162.342 55.4549 162.155C57.2801 162.076 58.7912 162.01 59.9402 161.96C60.4889 161.915 61.0405 161.914 61.5893 161.96Z" fill="#E0E0E0"/>
<path d="M63.9034 170.921C63.3643 171.033 62.8169 171.101 62.2666 171.123C61.1202 171.216 59.6125 171.337 57.7916 171.483C54.0115 171.765 48.7874 172.117 43.0156 172.475C37.2418 172.832 32.0136 173.127 28.2277 173.314C26.4026 173.393 24.8917 173.459 23.7427 173.509C23.194 173.555 22.6425 173.555 22.0938 173.51C22.6327 173.397 23.18 173.329 23.7302 173.307C24.8765 173.214 26.384 173.093 28.205 172.947C31.985 172.665 37.2097 172.313 42.9834 171.955C48.7552 171.598 53.9831 171.303 57.769 171.116C59.5941 171.037 61.1052 170.971 62.2542 170.921C62.8029 170.875 63.3545 170.875 63.9034 170.921Z" fill="#E0E0E0"/>
<path d="M51.4927 17.9922L51.0737 84.8545H116.066L117.132 17.9922L112.051 18.3317L112.53 20.3859C112.446 21.6987 111.541 22.1902 110.226 22.2276C110.198 22.2284 110.169 22.2288 110.14 22.2288C108.815 22.2294 107.624 21.7874 107.493 20.4684L107.924 17.9922H103.351C103.351 17.9922 103.865 22.4934 101.047 22.3817C101.047 22.3817 98.4831 21.8998 99.2134 17.9922H95.3999C95.3999 17.9922 96.1047 22.5093 93.1838 22.4281C90.7033 22.3592 90.8098 19.7888 90.9374 17.9922H86.914C86.914 17.9922 87.3207 22.4561 84.3652 22.062C81.4097 21.6679 82.3822 17.9922 82.3822 17.9922H77.2594C77.2594 17.9922 78.5753 22.2243 75.5213 22.2243C72.4673 22.2243 73.0544 19.0037 73.4117 17.9922H69.5171C69.5171 17.9922 70.8153 22.3054 66.9207 22.062C63.9973 21.8793 65.6345 17.9922 65.6345 17.9922H60.2161C60.2161 17.9922 61.4845 22.2243 58.5636 22.2243C56.4854 22.2243 55.7828 19.6395 56.965 17.9922H51.4927Z" fill="#FFC67D"/>
<path d="M65.9628 8.43325L40.1274 26.9062L45.1841 33.9783L71.0195 15.5053L65.9628 8.43325Z" fill="white"/>
<path d="M123.89 69.6403L98.0547 88.1133L103.111 95.1853L128.947 76.7123L123.89 69.6403Z" fill="white"/>
<path d="M110.239 35.6509C110.073 35.6913 109.902 35.709 109.731 35.7034C109.339 35.7166 108.858 35.7327 108.276 35.7523C106.932 35.7731 105.123 35.8011 102.922 35.8351C98.4016 35.8822 92.1568 35.9114 85.2597 35.9114C78.3603 35.9114 72.1149 35.8822 67.5944 35.8351C65.3938 35.801 63.5843 35.7731 62.2412 35.7523C61.6589 35.7327 61.1783 35.7166 60.7857 35.7034C60.615 35.709 60.4443 35.6913 60.2783 35.6509C60.4443 35.6106 60.615 35.593 60.7857 35.5985C61.1783 35.5853 61.6588 35.5692 62.2412 35.5496C63.5843 35.5288 65.3938 35.5009 67.5944 35.4668C72.1149 35.4197 78.3603 35.3906 85.2597 35.3906C92.1568 35.3906 98.4016 35.4197 102.922 35.4668C105.123 35.5009 106.932 35.5288 108.276 35.5496C108.858 35.5692 109.339 35.5853 109.731 35.5985C109.902 35.593 110.073 35.6107 110.239 35.6509Z" fill="#263238"/>
<path d="M109.086 47.6783C108.927 47.7186 108.764 47.7362 108.601 47.7308C108.223 47.7441 107.765 47.7602 107.212 47.7797C105.924 47.8006 104.198 47.8285 102.103 47.8624C97.7892 47.9096 91.8298 47.9387 85.2478 47.9387C78.6636 47.9387 72.7036 47.9096 68.3896 47.8624C66.2946 47.8285 64.5692 47.8006 63.2809 47.7797C62.7284 47.7602 62.2701 47.7441 61.892 47.7308C61.7289 47.7362 61.5659 47.7186 61.4077 47.6783C61.5659 47.638 61.7289 47.6203 61.892 47.6258C62.2701 47.6125 62.7283 47.5964 63.2809 47.577C64.5691 47.5561 66.2946 47.5282 68.3896 47.4942C72.7036 47.4471 78.6636 47.418 85.2478 47.418C91.8298 47.418 97.7892 47.4471 102.103 47.4942C104.198 47.5282 105.924 47.5561 107.212 47.577C107.765 47.5964 108.223 47.6125 108.601 47.6258C108.764 47.6203 108.927 47.638 109.086 47.6783Z" fill="#263238"/>
<path d="M86.3878 59.2915C85.2298 59.4406 84.0621 59.5022 82.8948 59.4757C80.7367 59.5229 77.7554 59.5519 74.4628 59.5519C71.169 59.5519 68.1874 59.5229 66.0293 59.4757C64.8621 59.5022 63.6946 59.4406 62.5366 59.2915C63.6946 59.1425 64.8621 59.0809 66.0293 59.1074C68.1874 59.0603 71.169 59.0312 74.4628 59.0312C77.7554 59.0312 80.7367 59.0603 82.8948 59.1074C84.0621 59.0809 85.2298 59.1425 86.3878 59.2915Z" fill="#263238"/>
<path d="M430.177 412.51C430.177 412.654 337.479 412.771 223.157 412.771C108.795 412.771 16.1172 412.654 16.1172 412.51C16.1172 412.367 108.795 412.25 223.157 412.25C337.479 412.25 430.177 412.367 430.177 412.51Z" fill="#263238"/>
<path d="M344.341 373.729C342.569 376.259 339.127 375.421 337.531 373.877C335.934 372.333 335.26 370.095 334.646 367.961C333.243 363.085 331.828 357.969 332.871 353.004C333.123 351.499 333.784 350.092 334.782 348.937C335.287 348.369 335.933 347.943 336.655 347.703C337.377 347.462 338.15 347.416 338.895 347.568C340.631 348.027 341.71 349.727 342.49 351.344C344.786 356.119 345.99 361.346 346.013 366.645C346.179 369.121 345.596 371.589 344.341 373.729Z" fill="#E8505B"/>
<path opacity="0.2" d="M344.341 373.729C342.569 376.259 339.127 375.421 337.531 373.877C335.934 372.333 335.26 370.095 334.646 367.961C333.243 363.085 331.828 357.969 332.871 353.004C333.123 351.499 333.784 350.092 334.782 348.937C335.287 348.369 335.933 347.943 336.655 347.703C337.377 347.462 338.15 347.416 338.895 347.568C340.631 348.027 341.71 349.727 342.49 351.344C344.786 356.119 345.99 361.346 346.013 366.645C346.179 369.121 345.596 371.589 344.341 373.729Z" fill="black"/>
<path d="M337.704 386.54C334.735 385.146 331.398 384.741 328.181 385.382C326.423 385.538 324.767 386.277 323.477 387.483C322.301 388.78 322.079 391.064 323.428 392.179C324.299 392.768 325.348 393.034 326.395 392.932C328.912 392.902 331.705 392.459 333.716 393.974C334.864 394.838 335.628 396.275 337 396.7C337.686 396.858 338.406 396.789 339.05 396.503C339.693 396.217 340.226 395.728 340.568 395.112C341.222 393.85 341.366 392.386 340.972 391.021C340.809 390.073 340.429 389.175 339.863 388.398C339.296 387.621 338.557 386.985 337.704 386.54Z" fill="#E8505B"/>
<path d="M349.205 377.36C348.295 376.171 347.689 374.778 347.44 373.302C347.19 371.825 347.304 370.311 347.772 368.889C348.744 366.048 350.48 363.53 352.79 361.611C355.411 359.277 358.463 357.477 361.774 356.31C363.055 355.793 364.433 355.559 365.814 355.624C366.503 355.664 367.173 355.872 367.764 356.229C368.355 356.587 368.849 357.083 369.205 357.675C370.15 359.479 369.244 361.666 368.263 363.45C366.535 366.596 364.562 369.6 362.362 372.436C360.594 374.716 358.568 376.966 355.872 377.996C353.177 379.026 350.377 378.905 348.948 377.036" fill="#E8505B"/>
<path d="M344.461 411.891C344.367 411.515 344.313 411.129 344.301 410.742C344.219 409.905 344.117 408.855 343.995 407.605C343.839 406.06 343.604 404.524 343.29 403.003C342.878 401.151 342.319 399.335 341.617 397.572C340.929 395.812 339.996 394.157 338.844 392.658C337.906 391.438 336.709 390.443 335.338 389.744C334.408 389.283 333.412 388.972 332.385 388.824C331.999 388.809 331.615 388.754 331.241 388.658C331.627 388.61 332.018 388.604 332.405 388.64C333.471 388.721 334.514 388.993 335.484 389.442C336.927 390.123 338.193 391.129 339.183 392.382C340.384 393.901 341.353 395.591 342.057 397.395C342.77 399.183 343.325 401.03 343.718 402.914C344.015 404.454 344.22 406.01 344.33 407.574C344.429 408.906 344.467 409.985 344.485 410.731C344.519 411.117 344.511 411.506 344.461 411.891Z" fill="#263238"/>
<path d="M344.244 409.476C344.213 409.3 344.203 409.121 344.213 408.942C344.214 408.542 344.216 408.037 344.217 407.417C344.221 406.094 344.22 404.178 344.15 401.812C344.032 397.082 343.625 390.551 342.838 383.373C342.046 376.193 340.995 369.734 340.038 365.1C339.812 363.939 339.584 362.893 339.369 361.978C339.165 361.061 338.99 360.27 338.821 359.63C338.676 359.028 338.559 358.537 338.465 358.147C338.413 357.976 338.382 357.8 338.372 357.621C338.453 357.78 338.515 357.948 338.557 358.121C338.673 358.505 338.82 358.989 339 359.583C339.196 360.217 339.397 361.003 339.627 361.916C339.867 362.828 340.118 363.871 340.366 365.03C341.673 371.07 342.656 377.176 343.31 383.321C344.098 390.514 344.453 397.063 344.485 401.806C344.513 404.178 344.463 406.097 344.402 407.422C344.364 408.041 344.333 408.546 344.309 408.946C344.308 409.125 344.287 409.303 344.244 409.476Z" fill="#263238"/>
<path d="M344.213 396.843C344.175 396.312 344.179 395.78 344.224 395.25C344.283 394.226 344.423 392.746 344.712 390.933C345.061 388.812 345.53 386.712 346.116 384.643C346.816 382.104 347.694 379.617 348.746 377.201C350.571 372.758 353.188 368.683 356.47 365.175C357.039 364.574 357.646 364.01 358.286 363.486C358.565 363.25 358.812 363.015 359.063 362.829L359.768 362.343C360.192 362.022 360.64 361.735 361.109 361.484C359.564 362.7 358.095 364.01 356.712 365.407C353.539 368.944 350.992 372.996 349.181 377.39C348.138 379.787 347.255 382.25 346.536 384.763C345.935 386.813 345.436 388.891 345.043 390.99C344.714 392.785 344.523 394.25 344.408 395.265C344.384 395.795 344.319 396.323 344.213 396.843Z" fill="#263238"/>
<path d="M345.876 323.842L129.528 296.329L167.212 0L388.93 28.1961C390.095 28.3442 391.152 28.9487 391.871 29.8768C392.59 30.8049 392.91 31.9804 392.762 33.1448L356.877 315.323C356.548 317.912 355.204 320.264 353.141 321.861C351.078 323.459 348.464 324.171 345.876 323.842Z" fill="#455A64"/>
<path d="M374.618 77.8563L372.785 92.2695L399.604 95.6802L401.437 81.267L374.618 77.8563Z" fill="#E8505B"/>
<path d="M374.618 77.8563L372.785 92.2695L399.604 95.6802L401.437 81.267L374.618 77.8563Z" fill="#AE6B16"/>
<path d="M384.743 35.7941L175.524 9.1875L139.689 290.973L348.908 317.58L384.743 35.7941Z" fill="#E0E0E0"/>
<path d="M375.851 31.1691L166.632 4.5625L130.797 286.348L340.016 312.955L375.851 31.1691Z" fill="#FAFAFA"/>
<path d="M169.809 32.4531L378.294 58.9664" stroke="#E0E0E0" stroke-miterlimit="10"/>
<path d="M169.344 46.6289L377.83 73.1422" stroke="#E0E0E0" stroke-miterlimit="10"/>
<path d="M167.562 60.6406L376.048 87.1539" stroke="#E0E0E0" stroke-miterlimit="10"/>
<path d="M165.781 74.6523L374.266 101.166" stroke="#E0E0E0" stroke-miterlimit="10"/>
<path d="M163.999 88.6641L372.484 115.177" stroke="#E0E0E0" stroke-miterlimit="10"/>
<path d="M162.217 102.676L370.702 129.189" stroke="#E0E0E0" stroke-miterlimit="10"/>
<path d="M160.435 116.688L368.92 143.201" stroke="#E0E0E0" stroke-miterlimit="10"/>
<path d="M158.653 130.699L367.139 157.213" stroke="#E0E0E0" stroke-miterlimit="10"/>
<path d="M156.871 144.711L365.357 171.224" stroke="#E0E0E0" stroke-miterlimit="10"/>
<path d="M155.089 158.723L363.575 185.236" stroke="#E0E0E0" stroke-miterlimit="10"/>
<path d="M153.308 172.734L361.793 199.248" stroke="#E0E0E0" stroke-miterlimit="10"/>
<path d="M151.526 186.746L360.011 213.259" stroke="#E0E0E0" stroke-miterlimit="10"/>
<path d="M149.744 200.758L358.229 227.271" stroke="#E0E0E0" stroke-miterlimit="10"/>
<path d="M146.18 228.781L354.666 255.295" stroke="#E0E0E0" stroke-miterlimit="10"/>
<path d="M144.398 242.793L352.883 269.306" stroke="#E0E0E0" stroke-miterlimit="10"/>
<path d="M142.616 256.805L351.102 283.318" stroke="#E0E0E0" stroke-miterlimit="10"/>
<path d="M140.834 270.816L349.32 297.33" stroke="#E0E0E0" stroke-miterlimit="10"/>
<path d="M199.82 10.2852L164.108 291.099" stroke="#E8505B" stroke-miterlimit="10"/>
<path d="M184.848 21.9462C184.741 22.7876 184.387 23.5783 183.831 24.2184C183.274 24.8585 182.541 25.3192 181.722 25.5424C180.904 25.7655 180.038 25.741 179.234 25.4719C178.43 25.2028 177.723 24.7013 177.204 24.0307C176.685 23.3602 176.376 22.5507 176.317 21.7046C176.257 20.8586 176.45 20.014 176.871 19.2776C177.292 18.5413 177.922 17.9463 178.681 17.5678C179.44 17.1894 180.294 17.0445 181.135 17.1514C181.694 17.2225 182.233 17.4029 182.722 17.6823C183.211 17.9617 183.64 18.3346 183.985 18.7799C184.329 19.2251 184.583 19.7339 184.731 20.2772C184.879 20.8205 184.919 21.3876 184.848 21.9462Z" fill="#455A64"/>
<path d="M180.872 53.212C180.765 54.0533 180.411 54.844 179.855 55.4841C179.298 56.1242 178.564 56.5849 177.746 56.808C176.928 57.0311 176.062 57.0066 175.258 56.7375C174.453 56.4684 173.747 55.9669 173.228 55.2963C172.708 54.6257 172.4 53.8163 172.341 52.9702C172.281 52.1242 172.474 51.2796 172.895 50.5433C173.316 49.8069 173.946 49.2119 174.705 48.8334C175.464 48.455 176.318 48.3101 177.159 48.4171C177.718 48.4881 178.257 48.6685 178.746 48.9479C179.235 49.2273 179.664 49.6003 180.009 50.0455C180.353 50.4908 180.607 50.9996 180.755 51.5429C180.903 52.0862 180.943 52.6533 180.872 53.212Z" fill="#455A64"/>
<path d="M176.895 84.4775C176.788 85.3188 176.434 86.1096 175.878 86.7497C175.322 87.3898 174.588 87.8505 173.77 88.0736C172.952 88.2967 172.085 88.2722 171.281 88.0031C170.477 87.7341 169.77 87.2325 169.251 86.562C168.732 85.8914 168.423 85.0819 168.364 84.2359C168.305 83.3898 168.498 82.5453 168.919 81.8089C169.339 81.0726 169.969 80.4775 170.728 80.0991C171.487 79.7206 172.341 79.5757 173.183 79.6827C174.311 79.8262 175.336 80.412 176.032 81.3111C176.728 82.2103 177.039 83.3493 176.895 84.4775Z" fill="#455A64"/>
<path d="M172.919 115.743C172.812 116.584 172.458 117.375 171.902 118.015C171.346 118.655 170.612 119.116 169.794 119.339C168.975 119.562 168.109 119.538 167.305 119.269C166.501 119 165.794 118.498 165.275 117.828C164.756 117.157 164.447 116.348 164.388 115.502C164.329 114.655 164.522 113.811 164.943 113.075C165.363 112.338 165.993 111.743 166.752 111.365C167.511 110.986 168.365 110.841 169.207 110.948C169.765 111.019 170.304 111.2 170.793 111.479C171.282 111.759 171.711 112.132 172.056 112.577C172.401 113.022 172.654 113.531 172.803 114.074C172.951 114.617 172.99 115.184 172.919 115.743Z" fill="#455A64"/>
<path d="M168.943 147.009C168.836 147.85 168.482 148.641 167.926 149.281C167.37 149.921 166.636 150.382 165.818 150.605C164.999 150.828 164.133 150.803 163.329 150.534C162.525 150.265 161.818 149.764 161.299 149.093C160.78 148.423 160.471 147.613 160.412 146.767C160.353 145.921 160.546 145.077 160.966 144.34C161.387 143.604 162.017 143.009 162.776 142.63C163.535 142.252 164.389 142.107 165.23 142.214C166.359 142.357 167.384 142.943 168.08 143.842C168.776 144.742 169.087 145.881 168.943 147.009Z" fill="#455A64"/>
<path d="M164.967 178.274C164.86 179.116 164.506 179.906 163.95 180.547C163.393 181.187 162.66 181.647 161.842 181.87C161.023 182.094 160.157 182.069 159.353 181.8C158.549 181.531 157.842 181.029 157.323 180.359C156.804 179.688 156.495 178.879 156.436 178.033C156.377 177.187 156.57 176.342 156.99 175.606C157.411 174.869 158.041 174.274 158.8 173.896C159.559 173.517 160.413 173.373 161.254 173.48C161.813 173.551 162.352 173.731 162.841 174.01C163.33 174.29 163.759 174.663 164.104 175.108C164.449 175.553 164.702 176.062 164.85 176.605C164.999 177.149 165.038 177.716 164.967 178.274Z" fill="#455A64"/>
<path d="M160.991 209.54C160.884 210.381 160.53 211.172 159.974 211.812C159.417 212.452 158.684 212.913 157.865 213.136C157.047 213.359 156.181 213.335 155.377 213.066C154.573 212.797 153.866 212.295 153.347 211.624C152.828 210.954 152.519 210.144 152.46 209.298C152.4 208.452 152.593 207.608 153.014 206.871C153.435 206.135 154.065 205.54 154.824 205.162C155.583 204.783 156.437 204.638 157.278 204.745C157.837 204.816 158.376 204.997 158.865 205.276C159.354 205.555 159.783 205.928 160.128 206.374C160.473 206.819 160.726 207.328 160.874 207.871C161.023 208.414 161.062 208.981 160.991 209.54Z" fill="#455A64"/>
<path d="M157.015 240.806C156.908 241.647 156.554 242.438 155.998 243.078C155.441 243.718 154.708 244.179 153.889 244.402C153.071 244.625 152.205 244.6 151.401 244.331C150.597 244.062 149.89 243.561 149.371 242.89C148.852 242.22 148.543 241.41 148.484 240.564C148.424 239.718 148.617 238.873 149.038 238.137C149.459 237.401 150.089 236.806 150.848 236.427C151.607 236.049 152.461 235.904 153.302 236.011C154.43 236.154 155.455 236.74 156.152 237.639C156.848 238.538 157.159 239.677 157.015 240.806Z" fill="#455A64"/>
<path d="M153.039 272.071C152.932 272.913 152.578 273.703 152.022 274.343C151.465 274.983 150.732 275.444 149.913 275.667C149.095 275.89 148.229 275.866 147.425 275.597C146.62 275.328 145.914 274.826 145.395 274.156C144.875 273.485 144.567 272.676 144.508 271.83C144.448 270.984 144.641 270.139 145.062 269.403C145.483 268.666 146.113 268.071 146.872 267.693C147.631 267.314 148.485 267.169 149.326 267.276C149.885 267.347 150.424 267.528 150.913 267.807C151.402 268.087 151.831 268.46 152.176 268.905C152.52 269.35 152.774 269.859 152.922 270.402C153.07 270.945 153.11 271.513 153.039 272.071Z" fill="#455A64"/>
<path d="M163.616 34.357C163.6 34.4087 163.439 34.406 163.139 34.3512C162.7 34.274 162.269 34.1582 161.851 34.0052C160.28 33.4075 158.9 32.3979 157.854 31.0825C157.138 30.158 156.584 29.1186 156.215 28.0086C155.794 26.7397 155.575 25.4126 155.566 24.0757C155.507 22.5552 155.814 21.0426 156.461 19.6654C157.225 18.2199 158.338 16.9883 159.699 16.0827C161.037 15.1798 162.553 14.5742 164.145 14.3068C165.606 14.0683 167.095 14.0696 168.555 14.3108C170.978 14.7332 173.287 15.6494 175.341 17.0026C176.704 17.8811 177.976 18.8925 179.14 20.022C179.954 20.8213 180.346 21.3208 180.276 21.3992C180.203 21.4821 179.674 21.1358 178.752 20.4906C177.475 19.5724 176.147 18.725 174.777 17.9524C172.789 16.8219 170.609 16.0701 168.346 15.7352C167.039 15.5576 165.712 15.5841 164.413 15.8139C163.039 16.064 161.733 16.5959 160.575 17.376C159.427 18.1379 158.48 19.1671 157.817 20.3753C157.266 21.5332 156.988 22.8024 157.005 24.0847C156.979 25.2788 157.129 26.4702 157.451 27.6204C157.731 28.6191 158.168 29.5671 158.745 30.4292C159.232 31.139 159.816 31.777 160.48 32.3247C160.989 32.7473 161.534 33.1251 162.108 33.4541C162.58 33.7381 162.986 33.892 163.24 34.0528C163.499 34.2014 163.631 34.3053 163.616 34.357Z" fill="#E8505B"/>
<path d="M159.64 65.6226C159.624 65.6744 159.463 65.6715 159.163 65.6168C158.724 65.5396 158.293 65.4239 157.875 65.2708C156.304 64.6732 154.924 63.6636 153.878 62.3482C153.162 61.4236 152.608 60.3843 152.239 59.2743C151.818 58.0053 151.599 56.6782 151.59 55.3413C151.53 53.8208 151.837 52.3083 152.485 50.9311C153.249 49.4855 154.362 48.2539 155.723 47.3483C157.061 46.4454 158.577 45.8399 160.169 45.5724C161.63 45.3339 163.119 45.3352 164.579 45.5764C167.002 45.9987 169.311 46.915 171.365 48.2683C172.728 49.1468 174 50.1582 175.164 51.2877C175.978 52.087 176.37 52.5864 176.3 52.6648C176.227 52.7477 175.698 52.4015 174.776 51.7562C173.498 50.838 172.171 49.9907 170.801 49.2181C168.813 48.0875 166.632 47.3357 164.37 47.0008C163.063 46.8232 161.736 46.8497 160.437 47.0795C159.063 47.3296 157.757 47.8615 156.599 48.6417C155.451 49.4036 154.504 50.4328 153.841 51.641C153.289 52.7989 153.012 54.068 153.029 55.3503C153.003 56.5444 153.153 57.7358 153.475 58.886C153.755 59.8847 154.192 60.8328 154.769 61.6948C155.256 62.4046 155.84 63.0426 156.504 63.5903C157.013 64.0129 157.558 64.3908 158.132 64.7198C158.604 65.0038 159.01 65.1577 159.264 65.3184C159.523 65.467 159.655 65.5709 159.64 65.6226Z" fill="#E8505B"/>
<path d="M155.663 96.8922C155.648 96.9439 155.486 96.9411 155.187 96.8864C154.748 96.8092 154.317 96.6933 153.898 96.5403C152.328 95.9427 150.947 94.9331 149.902 93.6177C149.185 92.6932 148.631 91.6538 148.262 90.5438C147.842 89.2748 147.623 87.9477 147.613 86.6108C147.554 85.0903 147.861 83.5778 148.508 82.2006C149.272 80.7551 150.385 79.5235 151.746 78.6178C153.085 77.715 154.601 77.1094 156.193 76.842C157.653 76.6034 159.142 76.6048 160.602 76.846C163.025 77.2683 165.335 78.1846 167.388 79.5378C168.751 80.4163 170.024 81.4277 171.187 82.5572C172.002 83.3565 172.393 83.8559 172.324 83.9343C172.25 84.0172 171.722 83.671 170.8 83.0258C169.522 82.1076 168.195 81.2602 166.824 80.4876C164.836 79.357 162.656 78.6052 160.394 78.2703C159.086 78.0928 157.759 78.1193 156.46 78.3491C155.087 78.5992 153.78 79.1311 152.623 79.9112C151.474 80.6731 150.528 81.7023 149.864 82.9105C149.313 84.0684 149.035 85.3375 149.053 86.6198C149.027 87.8139 149.177 89.0054 149.498 90.1556C149.779 91.1543 150.216 92.1023 150.792 92.9643C151.279 93.6741 151.863 94.3122 152.527 94.8598C153.037 95.2824 153.581 95.6603 154.155 95.9893C154.628 96.2733 155.033 96.4272 155.287 96.588C155.547 96.7365 155.678 96.8405 155.663 96.8922Z" fill="#E8505B"/>
<path d="M151.687 128.158C151.672 128.209 151.51 128.207 151.211 128.152C150.772 128.075 150.341 127.959 149.922 127.806C148.352 127.208 146.971 126.199 145.926 124.883C145.209 123.959 144.655 122.919 144.286 121.809C143.866 120.54 143.647 119.213 143.637 117.876C143.578 116.356 143.885 114.843 144.532 113.466C145.296 112.021 146.409 110.789 147.77 109.883C149.109 108.981 150.625 108.375 152.217 108.108C153.677 107.869 155.166 107.87 156.626 108.112C159.049 108.534 161.359 109.45 163.412 110.803C164.775 111.682 166.048 112.693 167.211 113.823C168.026 114.622 168.417 115.122 168.348 115.2C168.274 115.283 167.745 114.937 166.824 114.291C165.546 113.373 164.219 112.526 162.848 111.753C160.86 110.623 158.68 109.871 156.418 109.536C155.11 109.358 153.783 109.385 152.484 109.615C151.111 109.865 149.804 110.397 148.647 111.177C147.498 111.939 146.552 112.968 145.888 114.176C145.337 115.334 145.059 116.603 145.077 117.885C145.051 119.08 145.201 120.271 145.522 121.421C145.803 122.42 146.239 123.368 146.816 124.23C147.303 124.94 147.887 125.578 148.551 126.125C149.06 126.548 149.605 126.926 150.179 127.255C150.651 127.539 151.057 127.693 151.311 127.854C151.57 128.002 151.702 128.106 151.687 128.158Z" fill="#E8505B"/>
<path d="M147.711 159.423C147.696 159.475 147.534 159.472 147.235 159.418C146.796 159.34 146.365 159.225 145.946 159.072C144.376 158.474 142.995 157.464 141.949 156.149C141.233 155.224 140.679 154.185 140.31 153.075C139.89 151.806 139.671 150.479 139.661 149.142C139.602 147.622 139.909 146.109 140.556 144.732C141.32 143.286 142.433 142.055 143.794 141.149C145.132 140.246 146.649 139.641 148.241 139.373C149.701 139.135 151.19 139.136 152.65 139.377C155.073 139.8 157.383 140.716 159.436 142.069C160.799 142.948 162.072 143.959 163.235 145.089C164.05 145.888 164.441 146.387 164.372 146.466C164.298 146.549 163.769 146.202 162.848 145.557C161.57 144.639 160.243 143.791 158.872 143.019C156.884 141.888 154.704 141.136 152.442 140.802C151.134 140.624 149.807 140.65 148.508 140.88C147.135 141.13 145.828 141.662 144.671 142.443C143.522 143.204 142.576 144.234 141.912 145.442C141.361 146.6 141.083 147.869 141.101 149.151C141.074 150.345 141.225 151.537 141.546 152.687C141.827 153.686 142.263 154.634 142.84 155.496C143.327 156.205 143.911 156.843 144.575 157.391C145.084 157.814 145.629 158.192 146.203 158.521C146.675 158.805 147.081 158.959 147.335 159.119C147.594 159.268 147.726 159.372 147.711 159.423Z" fill="#E8505B"/>
<path d="M143.735 190.689C143.72 190.741 143.558 190.738 143.259 190.683C142.82 190.606 142.389 190.49 141.97 190.337C140.4 189.74 139.019 188.73 137.973 187.415C137.257 186.49 136.703 185.451 136.334 184.341C135.914 183.072 135.694 181.745 135.685 180.408C135.626 178.887 135.933 177.375 136.58 175.997C137.344 174.552 138.457 173.32 139.818 172.415C141.156 171.512 142.673 170.906 144.265 170.639C145.725 170.4 147.214 170.402 148.674 170.643C151.097 171.065 153.407 171.981 155.46 173.335C156.823 174.213 158.096 175.225 159.259 176.354C160.074 177.153 160.465 177.653 160.396 177.731C160.322 177.814 159.793 177.468 158.871 176.823C157.594 175.904 156.267 175.057 154.896 174.284C152.908 173.154 150.728 172.402 148.466 172.067C147.158 171.89 145.831 171.916 144.532 172.146C143.159 172.396 141.852 172.928 140.695 173.708C139.546 174.47 138.599 175.499 137.936 176.707C137.385 177.865 137.107 179.134 137.125 180.417C137.098 181.611 137.248 182.802 137.57 183.952C137.851 184.951 138.287 185.899 138.864 186.761C139.351 187.471 139.935 188.109 140.599 188.657C141.108 189.079 141.653 189.457 142.227 189.786C142.699 190.07 143.105 190.224 143.359 190.385C143.618 190.533 143.75 190.637 143.735 190.689Z" fill="#E8505B"/>
<path d="M139.759 221.955C139.744 222.006 139.582 222.004 139.282 221.949C138.844 221.872 138.412 221.756 137.994 221.603C136.423 221.005 135.043 219.996 133.997 218.68C133.281 217.756 132.727 216.716 132.358 215.606C131.937 214.337 131.718 213.01 131.709 211.673C131.65 210.153 131.957 208.64 132.604 207.263C133.368 205.818 134.481 204.586 135.842 203.68C137.18 202.777 138.696 202.172 140.288 201.904C141.749 201.666 143.238 201.667 144.698 201.908C147.121 202.331 149.431 203.247 151.484 204.6C152.847 205.479 154.12 206.49 155.283 207.62C156.098 208.419 156.489 208.918 156.419 208.997C156.346 209.08 155.817 208.734 154.895 208.088C153.618 207.17 152.291 206.323 150.92 205.55C148.932 204.42 146.752 203.668 144.49 203.333C143.182 203.155 141.855 203.182 140.556 203.412C139.182 203.662 137.876 204.194 136.719 204.974C135.57 205.736 134.623 206.765 133.96 207.973C133.409 209.131 133.131 210.4 133.148 211.682C133.122 212.876 133.272 214.068 133.594 215.218C133.874 216.217 134.311 217.165 134.888 218.027C135.375 218.737 135.959 219.375 136.623 219.922C137.132 220.345 137.677 220.723 138.251 221.052C138.723 221.336 139.129 221.49 139.383 221.65C139.642 221.799 139.774 221.903 139.759 221.955Z" fill="#E8505B"/>
<path d="M135.783 253.22C135.767 253.272 135.606 253.269 135.306 253.215C134.868 253.137 134.436 253.022 134.018 252.869C132.447 252.271 131.067 251.261 130.021 249.946C129.305 249.021 128.751 247.982 128.382 246.872C127.961 245.603 127.742 244.276 127.733 242.939C127.674 241.418 127.981 239.906 128.628 238.529C129.392 237.083 130.505 235.852 131.866 234.946C133.204 234.043 134.72 233.437 136.312 233.17C137.773 232.932 139.262 232.933 140.722 233.174C143.145 233.596 145.455 234.513 147.508 235.866C148.871 236.744 150.143 237.756 151.307 238.885C152.122 239.685 152.513 240.184 152.443 240.262C152.37 240.345 151.841 239.999 150.919 239.354C149.642 238.436 148.314 237.588 146.944 236.816C144.956 235.685 142.776 234.933 140.513 234.598C139.206 234.421 137.879 234.447 136.58 234.677C135.206 234.927 133.9 235.459 132.742 236.239C131.594 237.001 130.647 238.03 129.984 239.239C129.433 240.397 129.155 241.666 129.172 242.948C129.146 244.142 129.296 245.334 129.618 246.484C129.898 247.482 130.335 248.43 130.912 249.292C131.399 250.002 131.983 250.64 132.647 251.188C133.156 251.611 133.701 251.988 134.275 252.317C134.747 252.601 135.153 252.755 135.407 252.916C135.666 253.065 135.798 253.169 135.783 253.22Z" fill="#E8505B"/>
<path d="M131.807 284.486C131.791 284.538 131.63 284.535 131.33 284.48C130.891 284.403 130.46 284.287 130.042 284.134C128.471 283.536 127.091 282.527 126.045 281.211C125.329 280.287 124.775 279.247 124.406 278.138C123.985 276.869 123.766 275.541 123.757 274.205C123.698 272.684 124.005 271.171 124.652 269.794C125.416 268.349 126.529 267.117 127.89 266.212C129.228 265.309 130.744 264.703 132.336 264.436C133.797 264.197 135.286 264.199 136.746 264.44C139.169 264.862 141.478 265.778 143.532 267.132C144.895 268.01 146.167 269.021 147.331 270.151C148.146 270.95 148.537 271.45 148.467 271.528C148.394 271.611 147.865 271.265 146.943 270.62C145.666 269.701 144.338 268.854 142.968 268.081C140.98 266.951 138.8 266.199 136.537 265.864C135.23 265.686 133.903 265.713 132.604 265.943C131.23 266.193 129.924 266.725 128.766 267.505C127.618 268.267 126.671 269.296 126.008 270.504C125.457 271.662 125.179 272.931 125.196 274.214C125.17 275.408 125.32 276.599 125.642 277.749C125.922 278.748 126.359 279.696 126.936 280.558C127.423 281.268 128.007 281.906 128.671 282.454C129.18 282.876 129.725 283.254 130.299 283.583C130.771 283.867 131.177 284.021 131.431 284.182C131.69 284.33 131.822 284.434 131.807 284.486Z" fill="#E8505B"/>
<g opacity="0.2">
<path opacity="0.2" d="M163.616 34.357C163.6 34.4087 163.439 34.406 163.139 34.3512C162.7 34.274 162.269 34.1582 161.851 34.0052C160.28 33.4075 158.9 32.3979 157.854 31.0825C157.138 30.158 156.584 29.1186 156.215 28.0086C155.794 26.7397 155.575 25.4126 155.566 24.0757C155.507 22.5552 155.814 21.0426 156.461 19.6654C157.225 18.2199 158.338 16.9883 159.699 16.0827C161.037 15.1798 162.553 14.5742 164.145 14.3068C165.606 14.0683 167.095 14.0696 168.555 14.3108C170.978 14.7332 173.287 15.6494 175.341 17.0026C176.704 17.8811 177.976 18.8925 179.14 20.022C179.954 20.8213 180.346 21.3208 180.276 21.3992C180.203 21.4821 179.674 21.1358 178.752 20.4906C177.475 19.5724 176.147 18.725 174.777 17.9524C172.789 16.8219 170.609 16.0701 168.346 15.7352C167.039 15.5576 165.712 15.5841 164.413 15.8139C163.039 16.064 161.733 16.5959 160.575 17.376C159.427 18.1379 158.48 19.1671 157.817 20.3753C157.266 21.5332 156.988 22.8024 157.005 24.0847C156.979 25.2788 157.129 26.4702 157.451 27.6204C157.731 28.6191 158.168 29.5671 158.745 30.4292C159.232 31.139 159.816 31.777 160.48 32.3247C160.989 32.7473 161.534 33.1251 162.108 33.4541C162.58 33.7381 162.986 33.892 163.24 34.0528C163.499 34.2014 163.631 34.3053 163.616 34.357Z" fill="black"/>
<path opacity="0.2" d="M159.64 65.6226C159.624 65.6744 159.463 65.6715 159.163 65.6168C158.724 65.5396 158.293 65.4239 157.875 65.2708C156.304 64.6732 154.924 63.6636 153.878 62.3482C153.162 61.4236 152.608 60.3843 152.239 59.2743C151.818 58.0053 151.599 56.6782 151.59 55.3413C151.53 53.8208 151.837 52.3083 152.485 50.9311C153.249 49.4855 154.362 48.2539 155.723 47.3483C157.061 46.4454 158.577 45.8399 160.169 45.5724C161.63 45.3339 163.119 45.3352 164.579 45.5764C167.002 45.9987 169.311 46.915 171.365 48.2683C172.728 49.1468 174 50.1582 175.164 51.2877C175.978 52.087 176.37 52.5864 176.3 52.6648C176.227 52.7477 175.698 52.4015 174.776 51.7562C173.498 50.838 172.171 49.9907 170.801 49.2181C168.813 48.0875 166.632 47.3357 164.37 47.0008C163.063 46.8232 161.736 46.8497 160.437 47.0795C159.063 47.3296 157.757 47.8615 156.599 48.6417C155.451 49.4036 154.504 50.4328 153.841 51.641C153.289 52.7989 153.012 54.068 153.029 55.3503C153.003 56.5444 153.153 57.7358 153.475 58.886C153.755 59.8847 154.192 60.8328 154.769 61.6948C155.256 62.4046 155.84 63.0426 156.504 63.5903C157.013 64.0129 157.558 64.3908 158.132 64.7198C158.604 65.0038 159.01 65.1577 159.264 65.3184C159.523 65.467 159.655 65.5709 159.64 65.6226Z" fill="black"/>
<path opacity="0.2" d="M155.663 96.8883C155.648 96.94 155.486 96.9372 155.187 96.8825C154.748 96.8053 154.317 96.6894 153.898 96.5364C152.328 95.9388 150.947 94.9292 149.902 93.6138C149.185 92.6893 148.631 91.6499 148.262 90.5399C147.842 89.2709 147.623 87.9438 147.613 86.6069C147.554 85.0864 147.861 83.5739 148.508 82.1967C149.272 80.7512 150.385 79.5196 151.746 78.6139C153.085 77.7111 154.601 77.1055 156.193 76.8381C157.653 76.5995 159.142 76.6008 160.602 76.8421C163.025 77.2644 165.335 78.1807 167.388 79.5339C168.751 80.4124 170.024 81.4238 171.187 82.5533C172.002 83.3526 172.393 83.852 172.324 83.9304C172.25 84.0133 171.722 83.6671 170.8 83.0219C169.522 82.1037 168.195 81.2563 166.824 80.4837C164.836 79.3531 162.656 78.6013 160.394 78.2664C159.086 78.0888 157.759 78.1154 156.46 78.3452C155.087 78.5953 153.78 79.1272 152.623 79.9073C151.474 80.6692 150.528 81.6984 149.864 82.9066C149.313 84.0645 149.035 85.3336 149.053 86.6159C149.027 87.81 149.177 89.0014 149.498 90.1517C149.779 91.1504 150.216 92.0984 150.792 92.9604C151.279 93.6702 151.863 94.3082 152.527 94.8559C153.037 95.2785 153.581 95.6564 154.155 95.9854C154.628 96.2694 155.033 96.4233 155.287 96.5841C155.547 96.7326 155.678 96.8366 155.663 96.8883Z" fill="black"/>
<path opacity="0.2" d="M151.687 128.154C151.672 128.206 151.51 128.203 151.211 128.148C150.772 128.071 150.341 127.955 149.922 127.802C148.352 127.204 146.971 126.195 145.926 124.879C145.209 123.955 144.655 122.915 144.286 121.805C143.866 120.536 143.647 119.209 143.637 117.873C143.578 116.352 143.885 114.839 144.532 113.462C145.296 112.017 146.409 110.785 147.77 109.88C149.109 108.977 150.625 108.371 152.217 108.104C153.677 107.865 155.166 107.866 156.626 108.108C159.049 108.53 161.359 109.446 163.412 110.799C164.775 111.678 166.048 112.689 167.211 113.819C168.026 114.618 168.417 115.118 168.348 115.196C168.274 115.279 167.745 114.933 166.824 114.287C165.546 113.369 164.219 112.522 162.848 111.749C160.86 110.619 158.68 109.867 156.418 109.532C155.11 109.354 153.783 109.381 152.484 109.611C151.111 109.861 149.804 110.393 148.647 111.173C147.498 111.935 146.552 112.964 145.888 114.172C145.337 115.33 145.059 116.599 145.077 117.882C145.051 119.076 145.201 120.267 145.522 121.417C145.803 122.416 146.239 123.364 146.816 124.226C147.303 124.936 147.887 125.574 148.551 126.122C149.06 126.544 149.605 126.922 150.179 127.251C150.651 127.535 151.057 127.689 151.311 127.85C151.57 127.998 151.702 128.102 151.687 128.154Z" fill="black"/>
<path opacity="0.2" d="M147.711 159.42C147.696 159.471 147.534 159.468 147.235 159.414C146.796 159.337 146.365 159.221 145.946 159.068C144.376 158.47 142.995 157.46 141.949 156.145C141.233 155.221 140.679 154.181 140.31 153.071C139.89 151.802 139.671 150.475 139.661 149.138C139.602 147.618 139.909 146.105 140.556 144.728C141.32 143.282 142.433 142.051 143.794 141.145C145.132 140.242 146.649 139.637 148.241 139.369C149.701 139.131 151.19 139.132 152.65 139.373C155.073 139.796 157.383 140.712 159.436 142.065C160.799 142.944 162.072 143.955 163.235 145.085C164.05 145.884 164.441 146.383 164.372 146.462C164.298 146.545 163.769 146.198 162.848 145.553C161.57 144.635 160.243 143.788 158.872 143.015C156.884 141.884 154.704 141.133 152.442 140.798C151.134 140.62 149.807 140.647 148.508 140.876C147.135 141.127 145.828 141.658 144.671 142.439C143.522 143.2 142.576 144.23 141.912 145.438C141.361 146.596 141.083 147.865 141.101 149.147C141.074 150.341 141.225 151.533 141.546 152.683C141.827 153.682 142.263 154.63 142.84 155.492C143.327 156.201 143.911 156.84 144.575 157.387C145.084 157.81 145.629 158.188 146.203 158.517C146.675 158.801 147.081 158.955 147.335 159.115C147.594 159.264 147.726 159.368 147.711 159.42Z" fill="black"/>
<path opacity="0.2" d="M143.735 190.685C143.72 190.737 143.558 190.734 143.259 190.679C142.82 190.602 142.389 190.486 141.97 190.333C140.4 189.736 139.019 188.726 137.973 187.411C137.257 186.486 136.703 185.447 136.334 184.337C135.914 183.068 135.694 181.741 135.685 180.404C135.626 178.883 135.933 177.371 136.58 175.994C137.344 174.548 138.457 173.316 139.818 172.411C141.156 171.508 142.673 170.902 144.265 170.635C145.725 170.396 147.214 170.398 148.674 170.639C151.097 171.061 153.407 171.978 155.46 173.331C156.823 174.209 158.096 175.221 159.259 176.35C160.074 177.15 160.465 177.649 160.396 177.727C160.322 177.81 159.793 177.464 158.871 176.819C157.594 175.9 156.267 175.053 154.896 174.281C152.908 173.15 150.728 172.398 148.466 172.063C147.158 171.886 145.831 171.912 144.532 172.142C143.159 172.392 141.852 172.924 140.695 173.704C139.546 174.466 138.599 175.495 137.936 176.703C137.385 177.861 137.107 179.131 137.125 180.413C137.098 181.607 137.248 182.798 137.57 183.949C137.851 184.947 138.287 185.895 138.864 186.757C139.351 187.467 139.935 188.105 140.599 188.653C141.108 189.075 141.653 189.453 142.227 189.782C142.699 190.066 143.105 190.22 143.359 190.381C143.618 190.53 143.75 190.633 143.735 190.685Z" fill="black"/>
<path opacity="0.2" d="M139.759 221.951C139.744 222.003 139.582 222 139.282 221.945C138.844 221.868 138.412 221.752 137.994 221.599C136.423 221.001 135.043 219.992 133.997 218.676C133.281 217.752 132.727 216.712 132.358 215.602C131.937 214.333 131.718 213.006 131.709 211.669C131.65 210.149 131.957 208.636 132.604 207.259C133.368 205.814 134.481 204.582 135.842 203.676C137.18 202.774 138.696 202.168 140.288 201.901C141.749 201.662 143.238 201.663 144.698 201.905C147.121 202.327 149.431 203.243 151.484 204.596C152.847 205.475 154.12 206.486 155.283 207.616C156.098 208.415 156.489 208.915 156.419 208.993C156.346 209.076 155.817 208.73 154.895 208.084C153.618 207.166 152.291 206.319 150.92 205.546C148.932 204.416 146.752 203.664 144.49 203.329C143.182 203.151 141.855 203.178 140.556 203.408C139.182 203.658 137.876 204.19 136.719 204.97C135.57 205.732 134.623 206.761 133.96 207.969C133.409 209.127 133.131 210.396 133.148 211.678C133.122 212.873 133.272 214.064 133.594 215.214C133.874 216.213 134.311 217.161 134.888 218.023C135.375 218.733 135.959 219.371 136.623 219.918C137.132 220.341 137.677 220.719 138.251 221.048C138.723 221.332 139.129 221.486 139.383 221.647C139.642 221.795 139.774 221.899 139.759 221.951Z" fill="black"/>
<path opacity="0.2" d="M135.783 253.216C135.767 253.268 135.606 253.265 135.306 253.211C134.868 253.133 134.436 253.018 134.018 252.865C132.447 252.267 131.067 251.257 130.021 249.942C129.305 249.017 128.751 247.978 128.382 246.868C127.961 245.599 127.742 244.272 127.733 242.935C127.674 241.415 127.981 239.902 128.628 238.525C129.392 237.079 130.505 235.848 131.866 234.942C133.204 234.039 134.72 233.434 136.312 233.166C137.773 232.928 139.262 232.929 140.722 233.17C143.145 233.593 145.455 234.509 147.508 235.862C148.871 236.74 150.143 237.752 151.307 238.881C152.122 239.681 152.513 240.18 152.443 240.259C152.37 240.342 151.841 239.995 150.919 239.35C149.642 238.432 148.314 237.584 146.944 236.812C144.956 235.681 142.776 234.929 140.513 234.595C139.206 234.417 137.879 234.444 136.58 234.673C135.206 234.923 133.9 235.455 132.742 236.235C131.594 236.997 130.647 238.027 129.984 239.235C129.433 240.393 129.155 241.662 129.172 242.944C129.146 244.138 129.296 245.33 129.618 246.48C129.898 247.479 130.335 248.426 130.912 249.289C131.399 249.998 131.983 250.636 132.647 251.184C133.156 251.607 133.701 251.985 134.275 252.314C134.747 252.598 135.153 252.751 135.407 252.912C135.666 253.061 135.798 253.165 135.783 253.216Z" fill="black"/>
<path opacity="0.2" d="M131.807 284.482C131.791 284.534 131.63 284.531 131.33 284.476C130.891 284.399 130.46 284.283 130.042 284.13C128.471 283.532 127.091 282.523 126.045 281.208C125.329 280.283 124.775 279.244 124.406 278.134C123.985 276.865 123.766 275.538 123.757 274.201C123.698 272.68 124.005 271.168 124.652 269.79C125.416 268.345 126.529 267.113 127.89 266.208C129.228 265.305 130.744 264.699 132.336 264.432C133.797 264.193 135.286 264.195 136.746 264.436C139.169 264.858 141.478 265.774 143.532 267.128C144.895 268.006 146.167 269.017 147.331 270.147C148.146 270.946 148.537 271.446 148.467 271.524C148.394 271.607 147.865 271.261 146.943 270.616C145.666 269.697 144.338 268.85 142.968 268.077C140.98 266.947 138.8 266.195 136.537 265.86C135.23 265.683 133.903 265.709 132.604 265.939C131.23 266.189 129.924 266.721 128.766 267.501C127.618 268.263 126.671 269.292 126.008 270.5C125.457 271.658 125.179 272.927 125.196 274.21C125.17 275.404 125.32 276.595 125.642 277.745C125.922 278.744 126.359 279.692 126.936 280.554C127.423 281.264 128.007 281.902 128.671 282.45C129.18 282.872 129.725 283.25 130.299 283.579C130.771 283.863 131.177 284.017 131.431 284.178C131.69 284.326 131.822 284.43 131.807 284.482Z" fill="black"/>
</g>
<path d="M376.012 66.8953L374.179 81.3086L398.313 84.3778L400.146 69.9645L376.012 66.8953Z" fill="#FFC67D"/>
<path d="M357.063 77.7578C356.929 77.7608 356.795 77.752 356.662 77.7316C356.374 77.6999 355.988 77.6572 355.494 77.6028C354.441 77.4747 352.935 77.2916 351.009 77.0575C347.089 76.5576 341.465 75.8404 334.527 74.9557C320.593 73.1278 301.388 70.6087 280.176 67.8262C274.87 67.1208 269.689 66.4321 264.685 65.7669C259.682 65.1131 254.856 64.4255 250.26 63.8696C245.926 63.2576 241.531 63.2112 237.185 63.7314C233.13 64.2996 229.299 65.1674 225.743 64.7426C224.06 64.5509 222.428 64.0452 220.932 63.2519C219.518 62.5122 218.288 61.6609 217.109 60.9275C216.035 60.2198 214.894 59.6189 213.703 59.1333C212.693 58.7589 211.626 58.5595 210.549 58.5436C209.047 58.4615 207.568 58.9396 206.399 59.8853C206.019 60.2421 205.681 60.6414 205.392 61.0753C205.444 60.9518 205.508 60.8331 205.581 60.7207C205.659 60.5746 205.754 60.4379 205.863 60.3133C205.999 60.1278 206.155 59.9581 206.328 59.8072C207.499 58.8026 209.007 58.2787 210.549 58.3409C211.653 58.3398 212.749 58.529 213.788 58.9002C215.002 59.3771 216.166 59.9732 217.262 60.6799C218.455 61.4056 219.689 62.2425 221.084 62.9575C222.549 63.7195 224.143 64.2009 225.784 64.3767C229.258 64.7706 233.044 63.8971 237.126 63.3036C241.507 62.7587 245.941 62.7887 250.314 63.3928C254.929 63.9377 259.745 64.6138 264.753 65.2612C269.757 65.923 274.938 66.6081 280.245 67.3099C301.449 70.1514 320.647 72.724 334.576 74.5906C341.505 75.5444 347.121 76.3176 351.036 76.8565C352.956 77.1323 354.457 77.3479 355.508 77.4988C355.999 77.5748 356.383 77.6344 356.669 77.6788C356.803 77.6936 356.934 77.72 357.063 77.7578Z" fill="#263238"/>
<path d="M352.837 92.3057C352.711 92.3106 352.586 92.3036 352.462 92.2849C352.19 92.2568 351.829 92.2195 351.37 92.172C350.38 92.0579 348.973 91.8955 347.175 91.6879C343.505 91.2411 338.247 90.6008 331.761 89.8111C318.727 88.1733 300.768 85.9166 280.932 83.4241C261.097 80.8716 243.144 78.5613 230.114 76.8846C223.637 76.0258 218.386 75.3295 214.722 74.8437C212.929 74.5946 211.526 74.3996 210.54 74.2626C210.084 74.1937 209.725 74.1394 209.455 74.0985C209.33 74.0856 209.207 74.0609 209.087 74.0249C209.212 74.0201 209.337 74.027 209.461 74.0457L210.554 74.1585C211.543 74.2727 212.95 74.4351 214.747 74.6426C218.417 75.0894 223.675 75.7296 230.161 76.5193C243.195 78.1572 261.155 80.414 280.998 82.9075C300.826 85.4591 318.778 87.7692 331.808 89.4458C338.284 90.3046 343.536 91.0009 347.201 91.4868C348.993 91.7359 350.397 91.9309 351.383 92.0679C351.839 92.1369 352.198 92.1912 352.469 92.2321C352.593 92.2451 352.716 92.2698 352.837 92.3057Z" fill="#263238"/>
<path d="M335.757 176.265C335.637 176.271 335.518 176.264 335.4 176.247C335.14 176.22 334.797 176.185 334.362 176.14C333.419 176.032 332.082 175.879 330.375 175.683L315.723 173.903L267.409 167.836C248.556 165.408 231.493 163.211 219.105 161.616C212.951 160.798 207.961 160.135 204.475 159.672C202.774 159.435 201.441 159.248 200.501 159.117C200.069 159.051 199.728 158.999 199.469 158.96C199.35 158.948 199.233 158.924 199.12 158.889C199.239 158.883 199.358 158.889 199.476 158.907C199.736 158.934 200.079 158.969 200.514 159.013C201.457 159.121 202.794 159.275 204.501 159.471C207.992 159.895 212.989 160.502 219.152 161.251C231.544 162.807 248.614 164.951 267.474 167.319C286.32 169.746 303.382 171.943 315.769 173.538C321.923 174.355 326.914 175.018 330.4 175.482C332.102 175.719 333.435 175.905 334.375 176.036C334.807 176.102 335.148 176.154 335.407 176.194C335.526 176.206 335.643 176.23 335.757 176.265Z" fill="#263238"/>
<path d="M332.144 204.671C332.025 204.677 331.906 204.671 331.788 204.653C331.527 204.626 331.184 204.591 330.749 204.547C329.806 204.439 328.469 204.285 326.762 204.089C323.271 203.665 318.273 203.058 312.11 202.309C299.718 200.753 282.649 198.609 263.796 196.242C244.944 193.814 227.88 191.617 215.493 190.022L200.863 188.078C199.161 187.841 197.829 187.655 196.888 187.524C196.457 187.458 196.116 187.406 195.857 187.366C195.738 187.354 195.621 187.33 195.507 187.295C195.626 187.289 195.746 187.295 195.863 187.313C196.124 187.34 196.467 187.375 196.902 187.419C197.845 187.528 199.182 187.681 200.888 187.877C204.379 188.301 209.377 188.908 215.539 189.657L263.862 195.725C282.708 198.152 299.77 200.349 312.157 201.944C318.311 202.762 323.301 203.425 326.788 203.888C328.489 204.125 329.823 204.312 330.763 204.443C331.195 204.509 331.536 204.561 331.795 204.6C331.913 204.612 332.03 204.636 332.144 204.671Z" fill="#263238"/>
<path d="M331.14 189.821C331.023 189.827 330.907 189.821 330.791 189.804C330.535 189.778 330.199 189.744 329.774 189.7C328.849 189.594 327.54 189.444 325.87 189.253C322.45 188.838 317.557 188.244 311.523 187.512C299.388 185.989 282.675 183.89 264.215 181.573C245.756 179.195 229.049 177.043 216.919 175.481C210.894 174.68 206.008 174.03 202.593 173.576C200.928 173.343 199.624 173.161 198.702 173.032C198.28 172.967 197.946 172.916 197.692 172.877C197.576 172.865 197.461 172.842 197.35 172.807C197.466 172.801 197.583 172.807 197.698 172.824C197.954 172.85 198.29 172.885 198.715 172.928C199.64 173.034 200.949 173.183 202.619 173.375C206.038 173.79 210.932 174.384 216.965 175.116C229.1 176.639 245.814 178.738 264.281 181.056C282.733 183.433 299.439 185.584 311.57 187.147C317.594 187.948 322.481 188.598 325.896 189.052C327.561 189.285 328.866 189.467 329.787 189.596C330.21 189.661 330.544 189.712 330.798 189.751C330.914 189.763 331.029 189.786 331.14 189.821Z" fill="#263238"/>
<path d="M255.257 207.763C255.046 207.777 254.835 207.768 254.627 207.736C254.161 207.689 253.567 207.63 252.833 207.557C251.211 207.371 248.978 207.115 246.247 206.803C240.634 206.109 232.99 205.164 224.545 204.12C216.104 203.016 208.467 202.018 202.859 201.285C200.136 200.904 197.91 200.593 196.294 200.367C195.565 200.254 194.975 200.162 194.513 200.091C194.303 200.07 194.097 200.026 193.896 199.96C194.107 199.945 194.318 199.955 194.526 199.987C194.991 200.033 195.586 200.092 196.32 200.166C197.941 200.351 200.174 200.607 202.905 200.92C208.518 201.614 216.163 202.559 224.611 203.603C233.049 204.706 240.685 205.704 246.294 206.437C249.016 206.818 251.242 207.13 252.858 207.356L254.64 207.631C254.85 207.652 255.056 207.696 255.257 207.763Z" fill="#263238"/>
<path d="M227.468 89.0743C227.45 89.217 222.304 88.6801 215.976 87.8754C209.646 87.0704 204.531 86.3024 204.549 86.1597C204.567 86.017 209.712 86.5538 216.042 87.3588C222.37 88.1635 227.486 88.9317 227.468 89.0743Z" fill="#263238"/>
<path d="M337.732 160.735C337.617 160.742 337.501 160.736 337.387 160.719C337.134 160.694 336.803 160.662 336.385 160.621C335.505 160.519 334.207 160.384 332.531 160.244C330.856 160.096 328.805 159.938 326.421 159.8C324.037 159.648 321.32 159.523 318.316 159.392C312.308 159.123 305.146 158.937 297.2 158.474C293.228 158.234 289.058 157.93 284.755 157.374C280.459 156.791 276.04 156.083 271.498 155.412C253.36 152.637 236.942 150.125 225.022 148.301C219.103 147.367 214.303 146.61 210.948 146.081C209.313 145.811 208.031 145.6 207.125 145.451C206.711 145.377 206.384 145.318 206.133 145.274C206.019 145.259 205.907 145.233 205.798 145.196C205.913 145.193 206.028 145.201 206.141 145.221C206.393 145.253 206.724 145.294 207.141 145.347C208.051 145.473 209.337 145.652 210.978 145.88C214.34 146.371 219.148 147.072 225.077 147.937C237.003 149.722 253.428 152.181 271.575 154.897C276.113 155.567 280.543 156.281 284.822 156.869C289.103 157.429 293.264 157.742 297.229 157.995C305.163 158.484 312.324 158.708 318.333 159.024C321.338 159.179 324.056 159.33 326.44 159.51C328.825 159.676 330.877 159.863 332.55 160.042C334.225 160.213 335.521 160.381 336.398 160.516C336.814 160.579 337.143 160.629 337.395 160.667C337.509 160.678 337.622 160.701 337.732 160.735Z" fill="#263238"/>
<path d="M82.3121 246.093C82.3121 246.093 204.684 125.095 218.6 105.924L210.224 98.2188L72.2285 235.456L82.3121 246.093Z" fill="#E0E0E0"/>
<path d="M45.0047 271.619C50.5114 271.724 65.3888 269.599 86.3446 247.983L104.836 231.298L90.6877 217.685C90.6877 217.685 118.888 191.561 117.539 190.133C116.19 188.705 101.207 202.612 89.3626 212.862C78.5881 222.186 42.6387 255.068 41.8054 268.124C41.7764 268.566 41.8371 269.009 41.9839 269.426C42.1306 269.844 42.3603 270.228 42.6592 270.554C42.9581 270.881 43.32 271.143 43.7231 271.326C44.1262 271.509 44.5621 271.609 45.0047 271.619Z" fill="#455A64"/>
<path opacity="0.2" d="M117.539 190.133C116.19 188.705 101.207 202.612 89.3625 212.862C88.4291 213.67 87.2963 214.664 86.0241 215.798L100.074 229.259L81.6169 245.983C62.6395 265.64 48.6362 269.233 42.0923 269.659C42.3398 270.23 42.7457 270.718 43.2618 271.065C43.7779 271.412 44.3827 271.604 45.0046 271.619C50.5113 271.724 65.3887 269.599 86.3445 247.983L104.836 231.298L90.6877 217.685C90.6877 217.685 118.887 191.561 117.539 190.133Z" fill="black"/>
<path d="M106.798 214.292L203.245 117.355L199.161 113.598L102.876 210.155L106.798 214.292Z" fill="#263238"/>
<path d="M218.512 106.052C218.512 106.052 227.66 91.6374 225.105 90.8818C222.55 90.1262 210.224 98.2192 210.224 98.2192L212.58 100.654L198.628 114.131L203.245 117.353L215.985 103.897L218.512 106.052Z" fill="#455A64"/>
<path d="M124.509 171.635C125.716 171.727 126.929 171.575 128.076 171.188C129.222 170.801 130.279 170.186 131.182 169.381C132.086 168.575 132.818 167.596 133.334 166.501C133.85 165.406 134.14 164.219 134.186 163.009C134.374 158.112 134.539 153.162 134.539 153.162C134.539 153.162 141.959 152.467 142.497 145.124C143.035 137.78 142.789 120.827 142.789 120.827C138.721 118.777 134.179 117.85 129.633 118.143C125.087 118.435 120.701 119.936 116.928 122.49L115.788 123.262L116.204 162.761C116.228 165.011 117.094 167.17 118.631 168.813C120.169 170.456 122.266 171.462 124.509 171.635Z" fill="#FFBE9D"/>
<path d="M124.172 111.292C119.704 111.159 115.65 114.077 113.576 117.671C111.502 121.264 111.051 125.432 110.859 129.484C110.623 137.441 110.812 145.404 111.423 153.34C111.392 153.942 111.572 154.537 111.933 155.02C112.48 155.471 113.162 155.727 113.87 155.748C127.44 157.623 141.202 157.644 154.778 155.81C155.671 154.192 154.418 152.272 152.969 151.028C151.521 149.784 149.731 148.656 149.208 146.91C148.386 144.164 151.115 141.22 150.05 138.543C149.25 136.532 146.605 135.543 145.675 133.578C144.114 130.278 148.143 126.289 146.356 123.084C145.424 121.414 143.243 120.674 141.865 119.281C140.647 118.049 140.124 116.377 139.068 115.028C137.415 112.914 134.57 111.775 131.737 111.448C129.235 111.041 126.688 110.988 124.172 111.292Z" fill="#263238"/>
<path d="M113.705 119.688C111.808 120.612 110.988 122.877 110.713 124.969C110.438 127.061 110.511 129.255 109.642 131.178C108.713 133.231 106.777 134.797 106.267 136.992C105.602 139.846 107.484 143.209 105.785 145.597C104.691 147.135 102.543 147.519 101.195 148.841C99.3323 150.67 99.4975 153.664 99.7949 156.257C107.968 156.184 116.141 156.111 124.314 156.038" fill="#263238"/>
<path d="M119.11 115.793C118.889 114.6 118.381 113.478 117.63 112.525C116.878 111.572 115.905 110.817 114.796 110.325C113.686 109.833 112.474 109.619 111.263 109.701C110.052 109.783 108.879 110.159 107.847 110.797C103.929 113.216 102.544 118.992 98.1387 120.331C96.9917 120.68 95.5791 120.783 94.9754 121.818C94.3463 122.898 95.1288 124.357 96.2551 124.897C97.4335 125.331 98.7084 125.434 99.9411 125.194C99.5819 125.156 99.2188 125.201 98.8801 125.327C98.5414 125.452 98.2363 125.654 97.9886 125.917C97.7409 126.18 97.5574 126.496 97.4523 126.842C97.3472 127.188 97.3234 127.553 97.3828 127.909C97.58 128.621 98.0336 129.234 98.6561 129.631C99.2787 130.028 100.026 130.181 100.755 130.06C101.478 129.905 102.146 129.56 102.691 129.061C103.237 128.561 103.639 127.926 103.858 127.219C103.326 128.76 102.795 130.302 102.264 131.843C105.313 132.378 107.912 129.632 109.458 126.95C111.003 124.268 112.404 121.133 115.26 119.937C116.528 119.405 118.003 119.309 119.094 118.471C120.184 117.633 120.4 115.533 119.086 115.126" fill="#263238"/>
<path d="M120.381 115.88C120.408 115.833 120.953 116.102 121.456 116.905C121.788 117.431 121.992 118.027 122.052 118.646C122.111 119.265 122.025 119.89 121.799 120.469C121.573 121.048 121.214 121.566 120.751 121.981C120.288 122.397 119.734 122.697 119.133 122.859C118.658 123.05 118.13 123.06 117.648 122.886C117.65 122.798 118.215 122.826 119.016 122.51C119.536 122.324 120.011 122.029 120.407 121.645C120.803 121.26 121.113 120.794 121.313 120.28C121.514 119.765 121.602 119.213 121.571 118.662C121.54 118.11 121.39 117.572 121.133 117.083C120.758 116.308 120.323 115.946 120.381 115.88Z" fill="#263238"/>
<path d="M146.972 348.913L159.541 406.886L176.123 406.498L168.776 343.785L146.972 348.913Z" fill="#FFBE9D"/>
<path d="M87.8447 187.375C87.8447 187.375 87.5629 187.779 87.1053 188.506C84.441 192.736 76.9433 207.909 83.2609 218.06L99.1181 204.12L101.798 197.857" fill="#FFBE9D"/>
<path d="M96.986 302.094L91.646 401.075L107.966 405.018L120.202 304.181L96.986 302.094Z" fill="#FFBE9D"/>
<path d="M169.078 177.62L146.071 183.171L144.743 200.917L147.946 211.036C147.907 211.403 153.119 228.423 153.119 228.423L154.734 234.051L102.153 234.598C101.978 228.453 106.066 222.394 106.066 222.394C109.057 217.32 108.284 209.661 106.891 203.846C106.45 202.006 105.866 198.973 105.633 197.095L105.593 196.772L102.583 202.065L84.3271 188.886C90.2552 177.452 98.9535 165.889 100.001 165.029C103.809 161.862 108.594 160.107 113.548 160.062L136.247 160.255C136.247 160.255 154.118 158.017 164.536 156.258L169.078 177.62Z" fill="#FFAF48"/>
<path d="M164.984 158.81C164.139 159.296 163.344 159.862 162.609 160.502C161.901 161.12 161.111 161.96 160.198 162.945C159.182 164.092 158.056 165.136 156.836 166.063C153.598 168.454 149.753 169.885 145.739 170.192C143.375 170.374 140.996 170.15 138.707 169.53C136.331 168.885 134.027 167.828 131.571 167.132C130.369 166.777 129.127 166.57 127.875 166.517C126.66 166.504 125.449 166.646 124.27 166.94C122.036 167.576 119.874 168.439 117.816 169.515C115.927 170.489 113.979 171.344 111.983 172.074C109.829 172.841 107.543 173.165 105.261 173.027C102.979 172.888 100.749 172.291 98.7034 171.27C98.0504 170.944 97.4222 170.571 96.8238 170.154C96.6105 170.015 96.4104 169.857 96.2261 169.682C96.2594 169.63 97.0843 170.294 98.7912 171.087C101.203 172.204 103.839 172.751 106.496 172.688C108.321 172.637 110.126 172.292 111.842 171.666C113.814 170.923 115.738 170.061 117.606 169.084C119.689 167.98 121.881 167.096 124.147 166.445C125.37 166.137 126.627 165.987 127.889 165.999C129.184 166.052 130.468 166.264 131.712 166.631C134.222 167.344 136.52 168.403 138.843 169.038C141.075 169.649 143.395 169.878 145.704 169.714C149.637 169.434 153.415 168.067 156.618 165.766C157.834 164.868 158.962 163.856 159.987 162.744C160.772 161.9 161.604 161.1 162.477 160.348C163.033 159.873 163.639 159.459 164.284 159.114C164.451 159.024 164.623 158.943 164.799 158.872C164.918 158.823 164.98 158.802 164.984 158.81Z" fill="#263238"/>
<path d="M144.916 188.666C144.786 188.835 144.631 188.984 144.457 189.107C143.961 189.474 143.387 189.722 142.78 189.832C141.818 189.999 140.831 189.948 139.891 189.683C138.66 189.319 137.498 188.753 136.452 188.01C135.218 187.121 133.918 186.327 132.563 185.636C130.976 184.946 129.252 184.632 127.523 184.718C123.837 184.832 120.006 186.383 116.086 188.077C114.162 188.919 112.175 189.61 110.144 190.144C108.231 190.654 106.24 190.796 104.274 190.563C102.494 190.314 100.79 189.681 99.2799 188.707C97.9724 187.872 96.7797 186.87 95.7323 185.726C94.2472 184.062 92.9316 182.255 91.805 180.331C91.3978 179.658 91.0931 179.13 90.8908 178.768C90.7753 178.591 90.6798 178.401 90.606 178.203C90.7489 178.359 90.8744 178.53 90.9803 178.714C91.2383 179.105 91.5684 179.605 91.9762 180.223C93.1591 182.089 94.5057 183.846 96.0001 185.473C97.042 186.574 98.2207 187.538 99.5074 188.34C100.973 189.263 102.621 189.859 104.338 190.088C106.243 190.299 108.172 190.15 110.022 189.649C112.026 189.114 113.986 188.428 115.886 187.597C119.795 185.909 123.703 184.33 127.509 184.238C129.308 184.163 131.1 184.507 132.743 185.244C134.11 185.958 135.419 186.781 136.656 187.703C137.661 188.444 138.78 189.018 139.969 189.403C140.867 189.679 141.814 189.757 142.745 189.632C143.538 189.498 144.285 189.165 144.916 188.666Z" fill="#263238"/>
<path d="M145.686 205.652C145.699 205.664 145.61 205.774 145.425 205.974C145.155 206.266 144.855 206.529 144.53 206.758C143.306 207.586 141.891 208.085 140.419 208.208C138.245 208.39 136.057 208.093 134.009 207.34C131.693 206.55 129.328 205.294 126.761 204.249C124.383 203.202 121.801 202.701 119.204 202.784C117.085 202.891 115.006 203.392 113.072 204.264C111.304 205.114 109.663 206.209 108.199 207.516C108.186 207.504 108.275 207.392 108.456 207.191C108.716 206.893 108.996 206.614 109.293 206.353C110.38 205.377 111.6 204.562 112.916 203.93C114.879 202.987 117.006 202.435 119.179 202.305C121.849 202.191 124.51 202.691 126.956 203.766C129.561 204.828 131.905 206.089 134.169 206.887C136.151 207.64 138.269 207.965 140.386 207.841C141.81 207.754 143.193 207.325 144.417 206.59C145.266 206.043 145.646 205.611 145.686 205.652Z" fill="#263238"/>
<path d="M151.312 221.986C151.279 222.03 150.777 221.617 149.75 221.092C148.283 220.382 146.694 219.96 145.068 219.848C142.654 219.695 140.231 219.959 137.906 220.629C135.26 221.327 132.453 222.46 129.409 223.419C126.546 224.378 123.542 224.851 120.523 224.818C118.06 224.776 115.617 224.377 113.27 223.631C111.691 223.136 110.168 222.477 108.726 221.664C108.213 221.383 107.836 221.129 107.581 220.958C107.443 220.882 107.317 220.786 107.207 220.673C107.233 220.631 107.783 220.969 108.822 221.485C110.283 222.219 111.808 222.82 113.377 223.279C115.701 223.962 118.108 224.319 120.529 224.338C123.495 224.343 126.442 223.865 129.254 222.922C132.269 221.973 135.094 220.848 137.784 220.165C140.163 219.503 142.641 219.272 145.102 219.481C146.764 219.628 148.379 220.115 149.845 220.913C150.238 221.133 150.613 221.386 150.964 221.669C151.204 221.864 151.323 221.972 151.312 221.986Z" fill="#263238"/>
<path d="M102.235 232.621L92.1558 348.208L117.059 348.356L129.365 255.72L145.43 349.196L170.348 344.597L155.077 233.594L102.235 232.621Z" fill="#263238"/>
<path d="M147.203 252.695C147.22 252.837 138.682 253.967 128.135 255.217C117.584 256.468 109.02 257.366 109.003 257.223C108.986 257.08 117.523 255.951 128.074 254.7C138.621 253.45 147.186 252.552 147.203 252.695Z" fill="#455A64"/>
<path d="M178.386 408.197L178.316 406.344L159.541 406.886L159.703 412.999L160.864 413.037C166.03 413.165 187.141 413.348 190.559 412.284C194.371 411.096 178.386 408.197 178.386 408.197Z" fill="#E0E0E0"/>
<g opacity="0.6">
<path opacity="0.6" d="M166.476 412.676C166.135 411.189 165.241 409.887 163.976 409.035C162.687 408.147 161.126 407.741 159.567 407.889L159.714 412.746L166.476 412.676Z" fill="white"/>
</g>
<g opacity="0.6">
<path opacity="0.6" d="M186.204 409.867C186.204 409.867 191.817 411.21 191.149 412.081C190.481 412.952 169.14 413.513 159.703 412.995L159.721 412.606L184.62 412.149C184.62 412.149 185.117 409.938 186.204 409.867Z" fill="white"/>
</g>
<path d="M159.427 412.605C159.534 412.622 159.642 412.63 159.749 412.629C160.027 412.637 160.331 412.646 160.674 412.656C161.598 412.669 162.735 412.685 164.075 412.703C166.948 412.723 170.917 412.703 175.298 412.591C179.68 412.479 183.645 412.296 186.512 412.129C187.849 412.042 188.983 411.968 189.905 411.908C190.247 411.88 190.55 411.856 190.826 411.834C190.934 411.83 191.041 411.816 191.147 411.793C191.039 411.783 190.931 411.782 190.823 411.791C190.546 411.802 190.242 411.813 189.899 411.827C188.977 411.868 187.842 411.92 186.503 411.98C183.635 412.109 179.672 412.268 175.292 412.381C170.913 412.492 166.947 412.536 164.075 412.554C162.735 412.562 161.599 412.569 160.675 412.574C160.332 412.579 160.028 412.583 159.75 412.586C159.642 412.583 159.534 412.589 159.427 412.605Z" fill="#263238"/>
<path d="M184.623 412.42C184.758 411.89 184.955 411.378 185.212 410.896C185.537 410.441 185.913 410.025 186.333 409.656C185.772 409.863 185.303 410.266 185.016 410.791C184.675 411.261 184.534 411.847 184.623 412.42Z" fill="#263238"/>
<path d="M179.029 409.963C179.083 409.992 179.338 409.687 179.598 409.28C179.859 408.874 180.026 408.52 179.972 408.49C179.919 408.46 179.664 408.766 179.403 409.172C179.143 409.579 178.975 409.933 179.029 409.963Z" fill="#263238"/>
<path d="M177.493 409.261C177.536 409.303 177.826 409.112 178.139 408.835C178.453 408.557 178.673 408.298 178.63 408.256C178.587 408.214 178.297 408.404 177.983 408.682C177.67 408.959 177.45 409.218 177.493 409.261Z" fill="#263238"/>
<path d="M176.486 407.645C177.132 407.775 177.799 407.765 178.44 407.614C177.794 407.484 177.128 407.494 176.486 407.645Z" fill="#263238"/>
<path d="M176.123 406.496C176.455 406.688 176.836 406.781 177.22 406.762C177.601 406.813 177.99 406.755 178.339 406.593C177.6 406.57 176.861 406.537 176.123 406.496Z" fill="#263238"/>
<path d="M179.617 408.431C180.017 408.484 180.423 408.471 180.818 408.393C181.249 408.331 181.675 408.232 182.089 408.097C182.34 408.023 182.583 407.923 182.812 407.797C182.95 407.721 183.053 407.594 183.099 407.443C183.115 407.358 183.105 407.27 183.07 407.192C183.035 407.113 182.977 407.046 182.903 407.001C182.441 406.801 181.926 406.759 181.437 406.88C180.949 407.001 180.513 407.279 180.198 407.672C180.021 407.893 179.895 408.151 179.828 408.427C179.786 408.619 179.793 408.728 179.807 408.73C179.92 408.379 180.095 408.051 180.325 407.763C180.593 407.457 180.942 407.233 181.332 407.116C181.8 406.955 182.311 406.974 182.766 407.169C182.961 407.295 182.893 407.506 182.684 407.629C182.472 407.746 182.249 407.841 182.017 407.915C181.617 408.055 181.206 408.166 180.79 408.246C180.074 408.384 179.616 408.397 179.617 408.431Z" fill="#263238"/>
<path d="M179.93 408.481C180.069 408.246 180.11 407.966 180.044 407.702C179.997 407.407 179.876 407.129 179.692 406.895C179.58 406.727 179.429 406.59 179.251 406.496C179.074 406.401 178.876 406.352 178.675 406.352C178.617 406.362 178.561 406.384 178.512 406.417C178.462 406.449 178.42 406.491 178.387 406.54C178.354 406.589 178.331 406.644 178.32 406.702C178.308 406.76 178.308 406.819 178.32 406.877C178.354 407.056 178.429 407.225 178.539 407.37C178.706 407.615 178.904 407.837 179.127 408.031C179.323 408.229 179.563 408.378 179.828 408.465C179.848 408.437 179.583 408.271 179.241 407.926C179.044 407.727 178.868 407.506 178.718 407.269C178.545 407.038 178.42 406.617 178.72 406.558C178.879 406.57 179.034 406.617 179.173 406.695C179.312 406.773 179.432 406.881 179.525 407.011C179.699 407.22 179.822 407.465 179.887 407.728C179.926 407.977 179.94 408.229 179.93 408.481Z" fill="#263238"/>
<path d="M159.664 407.841C159.669 407.88 160.198 407.78 161.046 407.85C162.138 407.938 163.188 408.309 164.094 408.925C164.96 409.534 165.639 410.374 166.052 411.349C166.36 412.087 166.403 412.587 166.444 412.581C166.463 412.464 166.46 412.345 166.434 412.23C166.392 411.912 166.314 411.599 166.202 411.298C165.818 410.27 165.13 409.384 164.23 408.757C163.292 408.115 162.192 407.749 161.056 407.701C160.713 407.685 160.369 407.702 160.029 407.753C159.903 407.762 159.78 407.792 159.664 407.841Z" fill="#263238"/>
<path d="M168.776 410.923C170.59 411.195 172.437 411.163 174.24 410.828C174.232 410.767 173.014 410.868 171.508 410.893C170.004 410.921 168.782 410.862 168.776 410.923Z" fill="#263238"/>
<path d="M165.113 411.015C165.069 411.059 165.22 411.253 165.353 411.51C165.489 411.766 165.56 411.996 165.625 411.991C165.685 411.989 165.713 411.714 165.556 411.418C165.402 411.121 165.152 410.972 165.113 411.015Z" fill="#263238"/>
<path d="M163.684 409.454C163.641 409.496 163.767 409.674 163.966 409.851C164.164 410.028 164.361 410.138 164.404 410.096C164.447 410.054 164.321 409.876 164.122 409.699C163.923 409.522 163.727 409.412 163.684 409.454Z" fill="#263238"/>
<path d="M161.686 408.776C161.701 408.834 161.949 408.826 162.226 408.909C162.506 408.985 162.706 409.122 162.754 409.081C162.803 409.048 162.638 408.805 162.293 408.707C161.949 408.608 161.666 408.723 161.686 408.776Z" fill="#263238"/>
<path d="M160.269 408.468C160.248 408.523 160.358 408.61 160.515 408.661C160.672 408.713 160.816 408.711 160.837 408.656C160.858 408.601 160.748 408.515 160.591 408.463C160.434 408.411 160.29 408.414 160.269 408.468Z" fill="#263238"/>
<path d="M91.1599 400.227L88.3809 412.453H107.162L107.966 404.494L91.1599 400.227Z" fill="#E0E0E0"/>
<path d="M107.546 410.679C106.642 410.826 105.725 410.879 104.81 410.836C103.119 410.855 100.784 410.809 98.2089 410.715C95.7266 410.609 93.4816 410.514 91.619 410.435C90.7047 410.443 89.7915 410.369 88.8901 410.215C89.7947 410.072 90.7117 410.022 91.6265 410.067C93.3173 410.052 95.6523 410.099 98.2277 410.194C100.709 410.297 102.954 410.391 104.816 410.468C105.731 410.458 106.644 410.529 107.546 410.679Z" fill="#263238"/>
<path d="M99.589 402.613C99.7591 405.253 99.5806 407.904 99.058 410.497C98.8878 407.857 99.0663 405.206 99.589 402.613Z" fill="#263238"/>
<path opacity="0.6" d="M88.3809 412.455H107.162L107.342 410.68L88.7199 410.215L88.3809 412.243" fill="white"/>
<path d="M208.585 117.631L201.736 120.102C201.638 117.359 199.773 114.501 199.773 115.876C199.773 117.25 199.125 124.328 199.125 124.328L184.839 149.182C182.851 153.141 179.273 155.448 176.701 155.857L164.984 158.367L168.277 173.856L184.605 169.823C186.694 169.307 188.633 168.309 190.267 166.908C191.9 165.507 193.183 163.743 194.011 161.757L207.596 129.193C208.499 127.097 209.263 124.944 209.884 122.747C210.045 121.851 210.013 120.931 209.789 120.048C209.565 119.166 209.155 118.342 208.585 117.631Z" fill="#FFBE9D"/>
</g>
<defs>
<clipPath id="clip0">
<rect width="430.177" height="413.194" fill="white"/>
</clipPath>
</defs>
</svg>
